<svg width="256" height="153" viewBox="0 0 256 153" fill="none" xmlns="http://www.w3.org/2000/svg">
<path d="M72.392 55.4384C72.392 58.5748 72.7311 61.1179 73.3245 62.9828C74.0026 64.8477 74.8503 66.8821 76.0371 69.0861C76.4609 69.7642 76.6304 70.4424 76.6304 71.0358C76.6304 71.8834 76.1218 72.7311 75.0199 73.5788L69.6795 77.1391C68.9165 77.6477 68.1536 77.902 67.4755 77.902C66.6278 77.902 65.7801 77.4781 64.9324 76.7152C63.7457 75.4437 62.7285 74.0874 61.8808 72.7311C61.0331 71.2901 60.1854 69.6795 59.253 67.7298C52.641 75.5285 44.3338 79.4278 34.3311 79.4278C27.2106 79.4278 21.5311 77.3934 17.3775 73.3245C13.2238 69.2556 11.1046 63.8305 11.1046 57.049C11.1046 49.8437 13.6477 43.9947 18.8185 39.5868C23.9894 35.1788 30.8556 32.9748 39.5867 32.9748C42.4689 32.9748 45.4357 33.2291 48.5722 33.653C51.7086 34.0768 54.9298 34.755 58.3205 35.5179V29.3298C58.3205 22.8874 56.9642 18.3947 54.3364 15.7669C51.6238 13.1391 47.0463 11.8675 40.5192 11.8675C37.5523 11.8675 34.5006 12.2066 31.3642 12.9695C28.2278 13.7324 25.1761 14.6649 22.2093 15.8517C20.853 16.445 19.8357 16.7841 19.2424 16.9536C18.649 17.1232 18.2252 17.2079 17.8861 17.2079C16.6993 17.2079 16.1059 16.3603 16.1059 14.5801V10.4265C16.1059 9.07019 16.2755 8.05297 16.6993 7.4596C17.1232 6.86622 17.8861 6.27284 19.0728 5.67946C22.0397 4.15364 25.6 2.88211 29.7536 1.8649C33.9073 0.762908 38.3152 0.254299 42.9775 0.254299C53.0649 0.254299 60.4397 2.54304 65.1867 7.12052C69.849 11.698 72.2225 18.649 72.2225 27.9735V55.4384H72.392ZM37.9761 68.3232C40.7735 68.3232 43.6556 67.8146 46.7073 66.7973C49.7589 65.7801 52.4715 63.9152 54.7603 61.3722C56.1165 59.7616 57.1338 57.9815 57.6424 55.947C58.151 53.9126 58.4901 51.4543 58.4901 48.5722V45.0119C56.0318 44.4185 53.404 43.9099 50.6914 43.5709C47.9788 43.2318 45.351 43.0622 42.7232 43.0622C37.0437 43.0622 32.8901 44.1642 30.0927 46.453C27.2954 48.7417 25.9391 51.9629 25.9391 56.2013C25.9391 60.1854 26.9563 63.1523 29.0755 65.1867C31.1099 67.3059 34.0768 68.3232 37.9761 68.3232ZM106.045 77.4781C104.519 77.4781 103.502 77.2238 102.824 76.6305C102.146 76.1218 101.552 74.9351 101.044 73.3245L81.1232 7.79867C80.6146 6.10331 80.3603 5.00132 80.3603 4.40794C80.3603 3.05165 81.0384 2.28874 82.3947 2.28874H90.702C92.3126 2.28874 93.4146 2.54304 94.0079 3.13642C94.6861 3.64503 95.1947 4.83178 95.7033 6.44238L109.944 62.5589L123.168 6.44238C123.592 4.74701 124.101 3.64503 124.779 3.13642C125.457 2.62781 126.644 2.28874 128.17 2.28874H134.951C136.562 2.28874 137.664 2.54304 138.342 3.13642C139.02 3.64503 139.613 4.83178 139.952 6.44238L153.346 63.2371L168.011 6.44238C168.519 4.74701 169.113 3.64503 169.706 3.13642C170.384 2.62781 171.486 2.28874 173.012 2.28874H180.895C182.252 2.28874 183.015 2.96688 183.015 4.40794C183.015 4.83178 182.93 5.25562 182.845 5.76423C182.76 6.27284 182.591 6.95099 182.252 7.88344L161.823 73.4093C161.314 75.1046 160.721 76.2066 160.042 76.7152C159.364 77.2238 158.262 77.5629 156.821 77.5629H149.531C147.921 77.5629 146.819 77.3086 146.14 76.7152C145.462 76.1218 144.869 75.0199 144.53 73.3245L131.391 18.649L118.336 73.2397C117.913 74.9351 117.404 76.0371 116.726 76.6305C116.048 77.2238 114.861 77.4781 113.335 77.4781H106.045ZM214.972 79.7669C210.564 79.7669 206.156 79.2583 201.918 78.2411C197.679 77.2238 194.374 76.1218 192.17 74.8503C190.813 74.0874 189.881 73.2397 189.542 72.4768C189.203 71.7139 189.033 70.8662 189.033 70.1033V65.7801C189.033 64 189.711 63.1523 190.983 63.1523C191.491 63.1523 192 63.2371 192.509 63.4066C193.017 63.5762 193.78 63.9152 194.628 64.2543C197.51 65.5258 200.646 66.543 203.952 67.2212C207.343 67.8993 210.649 68.2384 214.04 68.2384C219.38 68.2384 223.534 67.306 226.416 65.4411C229.298 63.5762 230.824 60.8636 230.824 57.3881C230.824 55.0146 230.061 53.0649 228.535 51.4543C227.009 49.8437 224.127 48.4026 219.974 47.0464L207.682 43.2318C201.494 41.2821 196.917 38.4 194.119 34.5854C191.322 30.8556 189.881 26.702 189.881 22.294C189.881 18.7338 190.644 15.5973 192.17 12.8848C193.695 10.1722 195.73 7.79867 198.273 5.93377C200.816 3.9841 203.698 2.54304 207.089 1.52582C210.479 0.508604 214.04 0.0847626 217.77 0.0847626C219.634 0.0847626 221.584 0.169531 223.449 0.423835C225.399 0.67814 227.179 1.01721 228.959 1.35629C230.654 1.78013 232.265 2.20397 233.791 2.71258C235.317 3.22119 236.503 3.7298 237.351 4.2384C238.538 4.91655 239.385 5.5947 239.894 6.35761C240.403 7.03576 240.657 7.96821 240.657 9.15496V13.1391C240.657 14.9192 239.979 15.8517 238.707 15.8517C238.029 15.8517 236.927 15.5126 235.486 14.8344C230.654 12.6305 225.229 11.5285 219.211 11.5285C214.379 11.5285 210.564 12.2914 207.936 13.902C205.309 15.5126 203.952 17.9709 203.952 21.4464C203.952 23.8199 204.8 25.8543 206.495 27.4649C208.191 29.0755 211.327 30.6861 215.82 32.1271L227.857 35.9417C233.96 37.8914 238.368 40.604 240.996 44.0795C243.624 47.555 244.895 51.5391 244.895 55.947C244.895 59.5921 244.132 62.898 242.691 65.7801C241.166 68.6622 239.131 71.2053 236.503 73.2397C233.875 75.3589 230.739 76.8848 227.094 77.9867C223.279 79.1735 219.295 79.7669 214.972 79.7669Z" fill="white"/>
<path d="M230.993 120.964C203.105 141.563 162.585 152.498 127.746 152.498C78.9192 152.498 34.9245 134.442 1.69535 104.434C-0.932464 102.061 1.44105 98.8397 4.57747 100.705C40.5192 121.558 84.853 134.188 130.713 134.188C161.653 134.188 195.645 127.746 226.924 114.522C231.587 112.403 235.571 117.574 230.993 120.964ZM242.607 107.74C239.046 103.163 219.041 105.536 209.971 106.638C207.258 106.977 206.834 104.604 209.293 102.824C225.229 91.6344 251.422 94.8556 254.474 98.5854C257.526 102.4 253.626 128.593 238.707 141.139C236.419 143.089 234.215 142.072 235.232 139.528C238.622 131.136 246.167 112.233 242.607 107.74Z" fill="#FF9900"/>
</svg>
