<?xml version="1.0" encoding="UTF-8"?>
<!DOCTYPE svg PUBLIC "-//W3C//DTD SVG 1.1//EN" "http://www.w3.org/Graphics/SVG/1.1/DTD/svg11.dtd">
<svg xmlns="http://www.w3.org/2000/svg" version="1.1" width="345px" height="481px" style="shape-rendering:geometricPrecision; text-rendering:geometricPrecision; image-rendering:optimizeQuality; fill-rule:evenodd; clip-rule:evenodd" xmlns:xlink="http://www.w3.org/1999/xlink">
<g><path style="opacity:1" fill="#f3d724" d="M 275.5,5.5 C 276.552,5.35055 277.552,5.51722 278.5,6C 282.266,10.0549 286.266,13.8882 290.5,17.5C 292.464,23.0906 294.131,28.7573 295.5,34.5C 301.445,39.6926 305.945,46.026 309,53.5C 313.212,63.4701 316.212,73.8034 318,84.5C 320.203,86.6688 321.036,89.3354 320.5,92.5C 317.518,92.9629 314.518,93.2962 311.5,93.5C 308.357,92.4934 305.523,90.8267 303,88.5C 302.235,84.1184 302.735,79.9518 304.5,76C 303.78,70.7625 301.447,70.0958 297.5,74C 300.474,77.7514 300.141,81.0848 296.5,84C 290.917,85.5649 285.251,86.7316 279.5,87.5C 288.742,90.6411 288.742,93.8078 279.5,97C 283.939,96.5178 288.439,96.0178 293,95.5C 298.756,94.5891 301.09,96.9224 300,102.5C 299.205,104.901 298.038,107.068 296.5,109C 284.593,114.911 271.926,117.578 258.5,117C 252.303,118.605 245.97,119.938 239.5,121C 245.167,121.667 250.833,121.667 256.5,121C 270.025,119.155 283.358,116.488 296.5,113C 300.895,111.14 303.895,107.973 305.5,103.5C 303.126,100.972 302.126,97.9717 302.5,94.5C 307.09,94.4764 311.423,95.4764 315.5,97.5C 318.372,100.459 320.372,103.959 321.5,108C 320.956,109.585 320.289,111.085 319.5,112.5C 306.99,117.604 293.99,120.937 280.5,122.5C 275.385,122.584 270.718,123.584 266.5,125.5C 253.113,126.758 239.78,126.758 226.5,125.5C 225.013,122.788 225.679,120.621 228.5,119C 232.961,115.436 237.961,112.936 243.5,111.5C 246.356,109.478 248.689,106.978 250.5,104C 252.332,103.252 253.999,102.252 255.5,101C 251.956,101.331 248.623,102.498 245.5,104.5C 241.352,107.799 237.019,110.966 232.5,114C 228.897,114.843 225.564,114.343 222.5,112.5C 221.47,109.896 221.47,107.229 222.5,104.5C 224.867,102.802 226.534,100.469 227.5,97.5C 227.328,96.5084 227.662,95.8417 228.5,95.5C 230.876,94.7939 232.21,93.1273 232.5,90.5C 234.5,89.8333 235.833,88.5 236.5,86.5C 237.209,85.596 238.209,85.2627 239.5,85.5C 240.833,84.1667 242.167,84.1667 243.5,85.5C 243.5,85.8333 243.5,86.1667 243.5,86.5C 240.81,89.8735 238.477,93.5401 236.5,97.5C 237.257,98.7733 237.923,98.7733 238.5,97.5C 238.833,97.5 239.167,97.5 239.5,97.5C 240.338,97.1583 240.672,96.4916 240.5,95.5C 242.472,91.8949 245.139,88.8949 248.5,86.5C 249.833,86.5 251.167,86.5 252.5,86.5C 255.364,88.156 258.198,90.156 261,92.5C 262.36,89.9774 264.193,87.9774 266.5,86.5C 266.833,86.5 267.167,86.5 267.5,86.5C 269.857,86.6633 272.19,86.4966 274.5,86C 270.564,86.2563 269.231,84.7563 270.5,81.5C 272.625,80.6324 272.791,79.6324 271,78.5C 267.644,79.176 264.81,80.5094 262.5,82.5C 258.025,83.5227 253.691,83.856 249.5,83.5C 247.167,83.5 244.833,83.5 242.5,83.5C 242.335,80.4816 242.502,77.4816 243,74.5C 246.42,68.4481 249.253,62.1148 251.5,55.5C 252.376,55.6309 253.043,55.2975 253.5,54.5C 254.846,51.1454 256.18,47.8121 257.5,44.5C 257.263,43.209 257.596,42.209 258.5,41.5C 260.913,38.6271 262.58,35.2937 263.5,31.5C 263.433,30.0413 263.766,28.7079 264.5,27.5C 265.79,26.9423 266.623,25.9423 267,24.5C 267.943,21.176 268.776,17.8426 269.5,14.5C 269.5,13.1667 269.5,11.8333 269.5,10.5C 270.167,10.5 270.5,10.1667 270.5,9.5C 271.76,7.63288 273.427,6.29955 275.5,5.5 Z"/></g>
<g><path style="opacity:0.059" fill="#c9c4ad" d="M 286.5,2.5 C 290.049,3.72316 293.049,5.72316 295.5,8.5C 292.622,7.63005 289.955,6.29671 287.5,4.5C 286.702,4.04311 286.369,3.37644 286.5,2.5 Z"/></g>
<g><path style="opacity:0.235" fill="#c9c8b7" d="M 276.5,3.5 C 276.167,4.16667 275.833,4.83333 275.5,5.5C 273.427,6.29955 271.76,7.63288 270.5,9.5C 269.833,9.5 269.5,9.83333 269.5,10.5C 268.504,10.4142 267.671,10.7476 267,11.5C 266.636,14.2493 265.303,16.2493 263,17.5C 262.5,17.1667 262,16.8333 261.5,16.5C 262.736,14.5385 264.236,12.2052 266,9.5C 268.971,6.53352 272.471,4.53352 276.5,3.5 Z"/></g>
<g><path style="opacity:0.11" fill="#c8c8b1" d="M 295.5,8.5 C 298.888,9.34814 301.221,11.3481 302.5,14.5C 299.527,13.1897 297.193,11.1897 295.5,8.5 Z"/></g>
<g><path style="opacity:0.059" fill="#cdc8b3" d="M 269.5,14.5 C 268.776,17.8426 267.943,21.176 267,24.5C 266.623,25.9423 265.79,26.9423 264.5,27.5C 265.631,22.7446 267.297,18.4113 269.5,14.5 Z"/></g>
<g><path style="opacity:0.176" fill="#c1c1a9" d="M 302.5,14.5 C 305.5,15.5 307.5,17.5 308.5,20.5C 307.5,17.5 305.5,15.5 302.5,14.5 Z"/></g>
<g><path style="opacity:0.761" fill="#ada89f" d="M 260.5,19.5 C 261.675,19.281 262.675,19.6143 263.5,20.5C 261.948,21.7979 260.948,21.4646 260.5,19.5 Z"/></g>
<g><path style="opacity:1" fill="#d6ae30" d="M 286.5,2.5 C 286.369,3.37644 286.702,4.04311 287.5,4.5C 289.955,6.29671 292.622,7.63005 295.5,8.5C 297.193,11.1897 299.527,13.1897 302.5,14.5C 303.5,17.5 305.5,19.5 308.5,20.5C 309.338,20.8417 309.672,21.5084 309.5,22.5C 310.473,25.135 312.14,27.135 314.5,28.5C 315.759,32.0246 317.759,35.0246 320.5,37.5C 320.833,38.1667 321.167,38.8333 321.5,39.5C 321.75,41.674 322.75,43.3406 324.5,44.5C 324.285,46.1788 324.952,47.1788 326.5,47.5C 326.502,51.1645 327.835,54.1645 330.5,56.5C 330.795,60.7938 332.462,64.4605 335.5,67.5C 335.781,71.1879 336.281,74.8546 337,78.5C 337.377,79.9423 338.21,80.9423 339.5,81.5C 339.5,82.1667 339.5,82.8333 339.5,83.5C 340.825,91.4237 341.492,99.4237 341.5,107.5C 334.071,108.918 326.738,110.585 319.5,112.5C 320.289,111.085 320.956,109.585 321.5,108C 320.372,103.959 318.372,100.459 315.5,97.5C 315.5,96.5 315.5,95.5 315.5,94.5C 313.901,94.7678 312.568,94.4345 311.5,93.5C 314.518,93.2962 317.518,92.9629 320.5,92.5C 321.036,89.3354 320.203,86.6688 318,84.5C 316.212,73.8034 313.212,63.4701 309,53.5C 305.945,46.026 301.445,39.6926 295.5,34.5C 294.131,28.7573 292.464,23.0906 290.5,17.5C 286.266,13.8882 282.266,10.0549 278.5,6C 277.552,5.51722 276.552,5.35055 275.5,5.5C 275.833,4.83333 276.167,4.16667 276.5,3.5C 276.5,2.5 276.5,1.5 276.5,0.5C 280.162,0.0339078 283.495,0.700574 286.5,2.5 Z"/></g>
<g><path style="opacity:1" fill="#f2f0e5" d="M 290.5,12.5 C 290.56,11.9569 290.893,11.6236 291.5,11.5C 293.385,12.6094 295.385,13.4427 297.5,14C 298.641,16.3079 300.308,18.1413 302.5,19.5C 303.309,21.0709 303.643,22.7376 303.5,24.5C 302.448,24.6495 301.448,24.4828 300.5,24C 296.842,20.3647 293.508,16.5314 290.5,12.5 Z"/></g>
<g><path style="opacity:0.773" fill="#cbcbc7" d="M 259.5,22.5 C 260.586,22.62 261.253,23.2867 261.5,24.5C 261.077,27.1084 260.077,29.4417 258.5,31.5C 258.167,31 257.833,30.5 257.5,30C 259.079,27.462 259.746,24.962 259.5,22.5 Z"/></g>
<g><path style="opacity:1" fill="#ccc8a4" d="M 309.5,22.5 C 311.914,23.9108 313.581,25.9108 314.5,28.5C 312.14,27.135 310.473,25.135 309.5,22.5 Z"/></g>
<g><path style="opacity:0.059" fill="#c1bfa8" d="M 314.5,28.5 C 317.277,30.9505 319.277,33.9505 320.5,37.5C 317.759,35.0246 315.759,32.0246 314.5,28.5 Z"/></g>
<g><path style="opacity:1" fill="#f2efdf" d="M 287.5,30.5 C 290.585,30.418 292.252,31.918 292.5,35C 291.576,39.5956 289.076,43.0956 285,45.5C 285.972,40.5915 286.805,35.5915 287.5,30.5 Z"/></g>
<g><path style="opacity:0.118" fill="#b9baa9" d="M 263.5,31.5 C 262.58,35.2937 260.913,38.6271 258.5,41.5C 259.606,38.946 260.439,36.2794 261,33.5C 261.417,32.244 262.25,31.5774 263.5,31.5 Z"/></g>
<g><path style="opacity:0.059" fill="#b3b3a3" d="M 321.5,39.5 C 323.408,40.4856 324.408,42.1523 324.5,44.5C 322.75,43.3406 321.75,41.674 321.5,39.5 Z"/></g>
<g><path style="opacity:1" fill="#eee9d2" d="M 273.5,34.5 C 274.22,37.0668 273.886,39.7335 272.5,42.5C 270.041,45.4666 268.208,48.8 267,52.5C 265.638,53.9247 264.138,54.758 262.5,55C 265.333,47.6233 268.999,40.79 273.5,34.5 Z"/></g>
<g><path style="opacity:0.235" fill="#c1c2b9" d="M 255.5,32.5 C 258.718,32.6509 259.051,33.4842 256.5,35C 256.833,35.3333 257.167,35.6667 257.5,36C 255.57,38.2583 254.07,40.7583 253,43.5C 251.428,45.5628 249.595,46.2294 247.5,45.5C 251.014,41.6606 253.68,37.3272 255.5,32.5 Z"/></g>
<g><path style="opacity:0.118" fill="#ada99e" d="M 324.5,44.5 C 325.401,45.2905 326.068,46.2905 326.5,47.5C 324.952,47.1788 324.285,46.1788 324.5,44.5 Z"/></g>
<g><path style="opacity:0.992" fill="#cbc9a5" d="M 257.5,44.5 C 256.18,47.8121 254.846,51.1454 253.5,54.5C 253.043,55.2975 252.376,55.6309 251.5,55.5C 252.82,52.1879 254.154,48.8546 255.5,45.5C 255.957,44.7025 256.624,44.3691 257.5,44.5 Z"/></g>
<g><path style="opacity:0.059" fill="#bdb9a0" d="M 326.5,47.5 C 329.138,49.839 330.472,52.839 330.5,56.5C 327.835,54.1645 326.502,51.1645 326.5,47.5 Z"/></g>
<g><path style="opacity:1" fill="#f3f0e1" d="M 298.5,49.5 C 299.725,50.1522 300.392,51.3189 300.5,53C 300.3,56.2334 299.133,59.0667 297,61.5C 291.215,66.0662 285.215,70.3995 279,74.5C 278.582,72.212 279.249,70.212 281,68.5C 286.865,63.3355 292.532,58.0022 298,52.5C 298.483,51.552 298.649,50.552 298.5,49.5 Z"/></g>
<g><path style="opacity:0.753" fill="#beaf7d" d="M 330.5,56.5 C 332.432,60.0312 334.098,63.6978 335.5,67.5C 332.462,64.4605 330.795,60.7938 330.5,56.5 Z"/></g>
<g><path style="opacity:0.235" fill="#ccccc0" d="M 251.5,55.5 C 249.253,62.1148 246.42,68.4481 243,74.5C 242.502,77.4816 242.335,80.4816 242.5,83.5C 244.833,83.5 247.167,83.5 249.5,83.5C 249.209,84.6491 248.376,85.3158 247,85.5C 245.522,84.908 244.356,84.908 243.5,85.5C 242.167,84.1667 240.833,84.1667 239.5,85.5C 239.577,84.2502 240.244,83.4169 241.5,83C 240.751,81.2663 240.251,79.433 240,77.5C 239.147,79.1247 238.147,79.4581 237,78.5C 236.508,79.549 236.674,80.549 237.5,81.5C 236.147,82.6853 234.98,84.0186 234,85.5C 233.585,81.6899 233.918,78.0233 235,74.5C 232.348,76.8792 229.514,78.8792 226.5,80.5C 226.389,79.8826 226.056,79.3826 225.5,79C 228.99,76.5087 232.157,73.6754 235,70.5C 238.196,63.1342 241.696,55.8008 245.5,48.5C 245.833,48.1667 246.167,47.8333 246.5,47.5C 248.814,49.9982 249.98,52.9982 250,56.5C 250.383,55.944 250.883,55.6107 251.5,55.5 Z M 237.5,73.5 C 238.458,73.0472 239.292,72.3805 240,71.5C 240.345,73.2009 239.678,74.5342 238,75.5C 237.536,74.9056 237.369,74.2389 237.5,73.5 Z M 245.5,61.5 C 245.414,62.4959 245.748,63.3292 246.5,64C 245.069,64.4652 243.903,65.2986 243,66.5C 242.253,64.0722 243.086,62.4056 245.5,61.5 Z M 245.5,55.5 C 245.5,56.8333 244.833,57.5 243.5,57.5C 243.833,56.5 244.5,55.8333 245.5,55.5 Z M 245.5,55.5 C 245.639,53.663 246.306,53.3296 247.5,54.5C 247.043,55.2975 246.376,55.6309 245.5,55.5 Z"/></g>
<g><path style="opacity:1" fill="#e9e2b9" d="M 264.5,73.5 C 265.5,73.5 266.5,73.5 267.5,73.5C 267.833,76.5 266.5,77.8333 263.5,77.5C 263.433,76.0413 263.766,74.7079 264.5,73.5 Z"/></g>
<g><path style="opacity:0.996" fill="#c6c8bf" d="M 214.5,79.5 C 213.167,79.5 211.833,79.5 210.5,79.5C 211.665,76.9781 212.998,76.9781 214.5,79.5 Z"/></g>
<g><path style="opacity:0.985" fill="#101010" d="M 210.5,79.5 C 211.833,79.5 213.167,79.5 214.5,79.5C 215.5,79.8333 216.167,80.5 216.5,81.5C 215.167,83.1667 215.167,84.8333 216.5,86.5C 216.5,87.1667 216.167,87.5 215.5,87.5C 214.075,85.9689 213.409,86.3023 213.5,88.5C 210.609,89.4025 207.609,89.7359 204.5,89.5C 198.167,89.5 191.833,89.5 185.5,89.5C 180.833,89.5 176.167,89.5 171.5,89.5C 170.5,89.5 169.5,89.5 168.5,89.5C 164.958,89.8128 161.625,89.4794 158.5,88.5C 157.393,86.1534 155.726,85.82 153.5,87.5C 152.5,87.5 151.5,87.5 150.5,87.5C 149.848,86.2749 148.681,85.6083 147,85.5C 145.319,85.6083 144.152,86.2749 143.5,87.5C 143.158,88.3382 142.492,88.6716 141.5,88.5C 139.118,87.4537 136.785,87.4537 134.5,88.5C 134.289,86.5759 133.623,86.2426 132.5,87.5C 131.5,87.5 130.5,87.5 129.5,87.5C 128.012,85.1546 126.012,84.8212 123.5,86.5C 121.167,86.5 118.833,86.5 116.5,86.5C 113.66,85.0829 110.993,85.4162 108.5,87.5C 107.5,87.5 106.5,87.5 105.5,87.5C 104.903,86.8614 104.07,86.528 103,86.5C 101.624,86.6842 100.791,87.3509 100.5,88.5C 97.2356,89.3242 93.9023,89.6576 90.5,89.5C 86.4862,89.3345 82.4862,89.5012 78.5,90C 80.3817,90.1981 82.0484,90.6981 83.5,91.5C 81.1798,92.8255 78.5132,92.8255 75.5,91.5C 75.0831,90.8761 74.4164,90.5427 73.5,90.5C 72.2867,90.7472 71.62,91.4138 71.5,92.5C 70.5,92.5 69.5,92.5 68.5,92.5C 67.3774,91.2426 66.7107,91.5759 66.5,93.5C 65.5,93.5 64.5,93.5 63.5,93.5C 62.9032,92.8614 62.0698,92.528 61,92.5C 59.6244,92.6842 58.7911,93.3509 58.5,94.5C 56.9582,95.3007 55.2915,95.634 53.5,95.5C 51.8212,95.2852 50.8212,95.9519 50.5,97.5C 48.4352,97.5172 46.4352,97.8505 44.5,98.5C 43.9032,97.8614 43.0698,97.528 42,97.5C 40.6244,97.6842 39.7911,98.3509 39.5,99.5C 39.1667,99.5 38.8333,99.5 38.5,99.5C 38.6716,98.5084 38.3382,97.8417 37.5,97.5C 37.5,97.1667 37.5,96.8333 37.5,96.5C 40.0514,96.3318 40.7181,95.3318 39.5,93.5C 39.5,93.1667 39.5,92.8333 39.5,92.5C 41.4456,91.9653 42.4456,90.632 42.5,88.5C 43.9587,88.5674 45.2921,88.2341 46.5,87.5C 48.3215,89.8575 50.6548,90.1908 53.5,88.5C 54.2975,88.0431 54.6309,87.3764 54.5,86.5C 57.4299,85.701 60.4299,85.3677 63.5,85.5C 65.5273,85.6621 67.5273,85.4955 69.5,85C 68.944,84.6174 68.6107,84.1174 68.5,83.5C 69.8333,83.5 71.1667,83.5 72.5,83.5C 73.5676,84.4345 74.901,84.7678 76.5,84.5C 83.8409,84.6663 91.1742,84.4997 98.5,84C 96.2922,83.8091 94.2922,83.3091 92.5,82.5C 99.5,82.5 106.5,82.5 113.5,82.5C 117.298,83.4834 121.298,83.8168 125.5,83.5C 130.844,83.666 136.177,83.4994 141.5,83C 143.382,82.8019 145.048,82.3019 146.5,81.5C 152.5,81.5 158.5,81.5 164.5,81.5C 170.688,82.9967 176.688,82.6633 182.5,80.5C 191.818,79.8167 201.151,79.4833 210.5,79.5 Z"/></g>
<g><path style="opacity:0.996" fill="#c7ba86" d="M 335.5,67.5 C 337.744,71.7932 339.077,76.4599 339.5,81.5C 338.21,80.9423 337.377,79.9423 337,78.5C 336.281,74.8546 335.781,71.1879 335.5,67.5 Z"/></g>
<g><path style="opacity:0.243" fill="#656564" d="M 130.5,81.5 C 135.833,81.5 141.167,81.5 146.5,81.5C 145.048,82.3019 143.382,82.8019 141.5,83C 136.177,83.4994 130.844,83.666 125.5,83.5C 127.167,82.8333 128.833,82.1667 130.5,81.5 Z"/></g>
<g><path style="opacity:0.698" fill="#a6a3a1" d="M 164.5,81.5 C 170.31,80.5104 176.31,80.1771 182.5,80.5C 176.688,82.6633 170.688,82.9967 164.5,81.5 Z"/></g>
<g><path style="opacity:0.059" fill="#c2c5b3" d="M 226.5,80.5 C 226.631,81.2389 226.464,81.9056 226,82.5C 225.308,81.5632 225.475,80.8966 226.5,80.5 Z"/></g>
<g><path style="opacity:0.11" fill="#ced1b5" d="M 270.5,81.5 C 270.167,80.1667 269.833,80.1667 269.5,81.5C 267.139,81.6741 264.806,82.0074 262.5,82.5C 264.81,80.5094 267.644,79.176 271,78.5C 272.791,79.6324 272.625,80.6324 270.5,81.5 Z"/></g>
<g><path style="opacity:1" fill="#b1afac" d="M 130.5,81.5 C 128.833,82.1667 127.167,82.8333 125.5,83.5C 121.298,83.8168 117.298,83.4834 113.5,82.5C 118.975,81.5111 124.642,81.1778 130.5,81.5 Z"/></g>
<g><path style="opacity:1" fill="#f3f0e2" d="M 311.5,93.5 C 312.568,94.4345 313.901,94.7678 315.5,94.5C 315.5,95.5 315.5,96.5 315.5,97.5C 311.423,95.4764 307.09,94.4764 302.5,94.5C 302.126,97.9717 303.126,100.972 305.5,103.5C 303.895,107.973 300.895,111.14 296.5,113C 283.358,116.488 270.025,119.155 256.5,121C 250.833,121.667 245.167,121.667 239.5,121C 245.97,119.938 252.303,118.605 258.5,117C 271.926,117.578 284.593,114.911 296.5,109C 298.038,107.068 299.205,104.901 300,102.5C 301.09,96.9224 298.756,94.5891 293,95.5C 288.439,96.0178 283.939,96.5178 279.5,97C 288.742,93.8078 288.742,90.6411 279.5,87.5C 285.251,86.7316 290.917,85.5649 296.5,84C 300.141,81.0848 300.474,77.7514 297.5,74C 301.447,70.0958 303.78,70.7625 304.5,76C 302.735,79.9518 302.235,84.1184 303,88.5C 305.523,90.8267 308.357,92.4934 311.5,93.5 Z"/></g>
<g><path style="opacity:0.059" fill="#aeada3" d="M 68.5,83.5 C 68.6107,84.1174 68.944,84.6174 69.5,85C 67.5273,85.4955 65.5273,85.6621 63.5,85.5C 64.6354,83.7868 66.302,83.1201 68.5,83.5 Z"/></g>
<g><path style="opacity:0.996" fill="#bbbeb7" d="M 77.5,82.5 C 77.1667,83.1667 76.8333,83.8333 76.5,84.5C 74.901,84.7678 73.5676,84.4345 72.5,83.5C 73.9187,82.5489 75.5853,82.2155 77.5,82.5 Z"/></g>
<g><path style="opacity:0.996" fill="#343434" d="M 77.5,82.5 C 82.5,82.5 87.5,82.5 92.5,82.5C 94.2922,83.3091 96.2922,83.8091 98.5,84C 91.1742,84.4997 83.8409,84.6663 76.5,84.5C 76.8333,83.8333 77.1667,83.1667 77.5,82.5 Z"/></g>
<g><path style="opacity:0.784" fill="#ccc9b6" d="M 269.5,81.5 C 269.833,81.5 270.167,81.5 270.5,81.5C 269.231,84.7563 270.564,86.2563 274.5,86C 272.19,86.4966 269.857,86.6633 267.5,86.5C 266.911,84.6267 267.578,82.96 269.5,81.5 Z"/></g>
<g><path style="opacity:0.059" fill="#c2c0ab" d="M 339.5,83.5 C 340.117,83.6107 340.617,83.944 341,84.5C 342.49,92.1023 343.323,99.7689 343.5,107.5C 342.833,107.5 342.167,107.5 341.5,107.5C 341.492,99.4237 340.825,91.4237 339.5,83.5 Z"/></g>
<g><path style="opacity:0.243" fill="#928f8f" d="M 216.5,81.5 C 217.833,83.1667 217.833,84.8333 216.5,86.5C 215.167,84.8333 215.167,83.1667 216.5,81.5 Z"/></g>
<g><path style="opacity:0.243" fill="#8c8b86" d="M 116.5,86.5 C 115.828,87.2674 114.995,87.9341 114,88.5C 112.301,87.5939 110.467,87.2606 108.5,87.5C 110.993,85.4162 113.66,85.0829 116.5,86.5 Z"/></g>
<g><path style="opacity:0.243" fill="#898784" d="M 129.5,87.5 C 127.265,87.7947 125.265,87.4614 123.5,86.5C 126.012,84.8212 128.012,85.1546 129.5,87.5 Z"/></g>
<g><path style="opacity:0.243" fill="#858383" d="M 150.5,87.5 C 148.374,87.8499 146.041,87.8499 143.5,87.5C 144.152,86.2749 145.319,85.6083 147,85.5C 148.681,85.6083 149.848,86.2749 150.5,87.5 Z"/></g>
<g><path style="opacity:0.776" fill="#d8dab0" d="M 236.5,86.5 C 235.833,88.5 234.5,89.8333 232.5,90.5C 232.957,88.2273 234.29,86.894 236.5,86.5 Z"/></g>
<g><path style="opacity:0.757" fill="#757573" d="M 105.5,87.5 C 104.081,88.4511 102.415,88.7845 100.5,88.5C 100.791,87.3509 101.624,86.6842 103,86.5C 104.07,86.528 104.903,86.8614 105.5,87.5 Z"/></g>
<g><path style="opacity:0.645" fill="#969190" d="M 134.5,88.5 C 133.508,88.6716 132.842,88.3382 132.5,87.5C 133.623,86.2426 134.289,86.5759 134.5,88.5 Z"/></g>
<g><path style="opacity:1" fill="#6e6e67" d="M 141.5,88.5 C 141.189,89.4778 140.522,90.1445 139.5,90.5C 137.664,89.9724 135.997,89.3058 134.5,88.5C 136.785,87.4537 139.118,87.4537 141.5,88.5 Z"/></g>
<g><path style="opacity:0.757" fill="#5f5f5d" d="M 158.5,88.5 C 156.585,88.7845 154.919,88.4511 153.5,87.5C 155.726,85.82 157.393,86.1534 158.5,88.5 Z"/></g>
<g><path style="opacity:0.714" fill="#908786" d="M 215.5,87.5 C 215.591,89.6977 214.925,90.0311 213.5,88.5C 213.409,86.3023 214.075,85.9689 215.5,87.5 Z"/></g>
<g><path style="opacity:1" fill="#4b4b48" d="M 54.5,86.5 C 54.6309,87.3764 54.2975,88.0431 53.5,88.5C 50.6548,90.1908 48.3215,89.8575 46.5,87.5C 49.2062,87.4249 51.8728,87.0916 54.5,86.5 Z"/></g>
<g><path style="opacity:0.682" fill="#cacab2" d="M 243.5,86.5 C 244.999,87.494 246.666,87.494 248.5,86.5C 245.139,88.8949 242.472,91.8949 240.5,95.5C 240.672,96.4916 240.338,97.1583 239.5,97.5C 239.167,96.1667 238.833,96.1667 238.5,97.5C 237.923,98.7733 237.257,98.7733 236.5,97.5C 238.477,93.5401 240.81,89.8735 243.5,86.5 Z"/></g>
<g><path style="opacity:0.059" fill="#c3bfa3" d="M 252.5,86.5 C 255.354,86.9239 258.021,87.9239 260.5,89.5C 262.13,87.736 264.13,86.736 266.5,86.5C 264.193,87.9774 262.36,89.9774 261,92.5C 258.198,90.156 255.364,88.156 252.5,86.5 Z"/></g>
<g><path style="opacity:0.941" fill="#b3b1ab" d="M 42.5,88.5 C 42.4456,90.632 41.4456,91.9653 39.5,92.5C 39.0882,90.0274 40.0882,88.6941 42.5,88.5 Z"/></g>
<g><path style="opacity:0.059" fill="#9b9a92" d="M 90.5,89.5 C 90.3893,90.1174 90.056,90.6174 89.5,91C 87.5273,91.4955 85.5273,91.6621 83.5,91.5C 82.0484,90.6981 80.3817,90.1981 78.5,90C 82.4862,89.5012 86.4862,89.3345 90.5,89.5 Z"/></g>
<g><path style="opacity:0.031" fill="#cdb9b8" d="M 168.5,89.5 C 169.5,89.5 170.5,89.5 171.5,89.5C 170.26,91.9845 169.26,91.9845 168.5,89.5 Z"/></g>
<g><path style="opacity:0.059" fill="#bcbcb1" d="M 185.5,89.5 C 191.833,89.5 198.167,89.5 204.5,89.5C 204.389,90.1174 204.056,90.6174 203.5,91C 197.833,91.6667 192.167,91.6667 186.5,91C 185.944,90.6174 185.611,90.1174 185.5,89.5 Z"/></g>
<g><path style="opacity:0.835" fill="#bebcab" d="M 232.5,90.5 C 232.21,93.1273 230.876,94.7939 228.5,95.5C 227.791,94.596 226.791,94.2627 225.5,94.5C 225.231,92.5714 225.731,90.9047 227,89.5C 227.333,89.8333 227.667,90.1667 228,90.5C 229.65,87.894 231.15,87.894 232.5,90.5 Z"/></g>
<g><path style="opacity:0.122" fill="#747572" d="M 75.5,91.5 C 74.4324,92.4345 73.099,92.7678 71.5,92.5C 71.62,91.4138 72.2867,90.7472 73.5,90.5C 74.4164,90.5427 75.0831,90.8761 75.5,91.5 Z"/></g>
<g><path style="opacity:0.176" fill="#c9cab8" d="M 68.5,92.5 C 68.1583,93.3382 67.4916,93.6716 66.5,93.5C 66.7107,91.5759 67.3774,91.2426 68.5,92.5 Z"/></g>
<g><path style="opacity:0.745" fill="#81807f" d="M 63.5,93.5 C 62.0813,94.4511 60.4147,94.7845 58.5,94.5C 58.7911,93.3509 59.6244,92.6842 61,92.5C 62.0698,92.528 62.9032,92.8614 63.5,93.5 Z"/></g>
<g><path style="opacity:0.122" fill="#646362" d="M 31.5,97.5 C 26.8479,96.2376 22.1812,96.2376 17.5,97.5C 17.4701,96.5028 17.9701,95.8361 19,95.5C 22.7894,94.438 26.6227,94.2713 30.5,95C 31.2524,95.6708 31.5858,96.5041 31.5,97.5 Z"/></g>
<g><path style="opacity:1" fill="#989493" d="M 39.5,93.5 C 40.7181,95.3318 40.0514,96.3318 37.5,96.5C 37.427,94.9731 38.0937,93.9731 39.5,93.5 Z"/></g>
<g><path style="opacity:0.973" fill="#0d0e0d" d="M 31.5,97.5 C 31.0453,101.082 29.0453,103.415 25.5,104.5C 24.0527,103.115 23.0527,103.448 22.5,105.5C 19.5131,105.998 16.5131,106.498 13.5,107C 11.6763,107.66 10.343,108.827 9.5,110.5C 10.1667,113.167 11.8333,114.833 14.5,115.5C 17.5,116.167 20.5,116.833 23.5,117.5C 24.0527,119.552 25.0527,119.885 26.5,118.5C 26.8333,118.5 27.1667,118.5 27.5,118.5C 27.7911,119.649 28.6244,120.316 30,120.5C 31.0698,120.472 31.9032,120.139 32.5,119.5C 33.5,119.5 34.5,119.5 35.5,119.5C 35.3893,120.117 35.056,120.617 34.5,121C 36.1341,121.494 37.8008,121.66 39.5,121.5C 44.8333,121.833 50.1667,122.167 55.5,122.5C 56.1342,123.947 57.3009,124.613 59,124.5C 60.0698,124.472 60.9032,124.139 61.5,123.5C 62.5,123.5 63.5,123.5 64.5,123.5C 64.6107,124.117 64.944,124.617 65.5,125C 74.6762,125.824 83.6762,125.657 92.5,124.5C 96.8333,124.5 101.167,124.5 105.5,124.5C 105.082,125.222 104.416,125.722 103.5,126C 108.489,126.499 113.489,126.666 118.5,126.5C 125.022,126.823 131.355,126.49 137.5,125.5C 156.167,125.5 174.833,125.5 193.5,125.5C 195.948,126.473 198.615,126.806 201.5,126.5C 203.5,126.5 205.5,126.5 207.5,126.5C 210.754,126.793 213.754,126.126 216.5,124.5C 218.556,125.199 220.556,126.199 222.5,127.5C 223.182,126.757 223.849,126.091 224.5,125.5C 225.167,125.5 225.833,125.5 226.5,125.5C 239.78,126.758 253.113,126.758 266.5,125.5C 271.546,125.735 276.213,124.735 280.5,122.5C 293.99,120.937 306.99,117.604 319.5,112.5C 326.738,110.585 334.071,108.918 341.5,107.5C 342.167,107.5 342.833,107.5 343.5,107.5C 343.5,108.833 343.5,110.167 343.5,111.5C 342.167,117.5 342.167,123.5 343.5,129.5C 343.5,130.833 343.5,132.167 343.5,133.5C 342.223,134.694 341.556,136.36 341.5,138.5C 341.507,140.369 341.84,142.036 342.5,143.5C 342.5,144.5 342.5,145.5 342.5,146.5C 340.448,147.053 340.115,148.053 341.5,149.5C 341.5,150.833 341.5,152.167 341.5,153.5C 339.797,152.34 339.131,153.007 339.5,155.5C 339.702,157.95 339.369,160.283 338.5,162.5C 336.231,164.799 335.898,167.466 337.5,170.5C 337.5,171.5 337.5,172.5 337.5,173.5C 336.414,173.62 335.747,174.287 335.5,175.5C 335.543,176.416 335.876,177.083 336.5,177.5C 336.5,179.5 336.5,181.5 336.5,183.5C 334.448,184.053 334.115,185.053 335.5,186.5C 335.5,188.833 335.5,191.167 335.5,193.5C 333.692,194.918 333.025,196.918 333.5,199.5C 333.733,204.895 333.4,210.228 332.5,215.5C 331.883,215.611 331.383,215.944 331,216.5C 330.19,220.358 330.357,224.024 331.5,227.5C 331.5,229.833 331.5,232.167 331.5,234.5C 330.235,235.514 329.569,237.014 329.5,239C 329.508,240.707 329.842,242.207 330.5,243.5C 330.5,246.167 330.5,248.833 330.5,251.5C 329.883,251.389 329.383,251.056 329,250.5C 328.502,253.817 328.335,257.15 328.5,260.5C 328.194,263.385 328.527,266.052 329.5,268.5C 329.5,271.833 329.5,275.167 329.5,278.5C 327.57,282.373 326.903,286.706 327.5,291.5C 327.536,300.185 327.203,308.851 326.5,317.5C 325.351,317.791 324.684,318.624 324.5,320C 324.528,321.07 324.861,321.903 325.5,322.5C 325.5,325.5 325.5,328.5 325.5,331.5C 324.275,332.152 323.608,333.319 323.5,335C 323.514,336.385 323.848,337.551 324.5,338.5C 324.5,339.5 324.5,340.5 324.5,341.5C 323.235,342.514 322.569,344.014 322.5,346C 322.508,347.707 322.842,349.207 323.5,350.5C 323.5,353.167 323.5,355.833 323.5,358.5C 322.732,357.737 322.232,356.737 322,355.5C 321.501,359.486 321.334,363.486 321.5,367.5C 321.249,372.507 320.916,377.507 320.5,382.5C 318.403,383.879 318.07,385.545 319.5,387.5C 319.5,388.167 319.5,388.833 319.5,389.5C 318.883,389.389 318.383,389.056 318,388.5C 317.833,389.833 317.667,391.167 317.5,392.5C 317.585,394.333 318.252,395.666 319.5,396.5C 318.766,397.708 318.433,399.041 318.5,400.5C 317.351,400.791 316.684,401.624 316.5,403C 316.528,404.07 316.861,404.903 317.5,405.5C 317.5,406.5 317.5,407.5 317.5,408.5C 316.883,408.389 316.383,408.056 316,407.5C 315.51,408.793 315.343,410.127 315.5,411.5C 315.736,414.609 315.403,417.609 314.5,420.5C 313.883,420.611 313.383,420.944 313,421.5C 312.208,428.247 312.374,434.914 313.5,441.5C 312.351,441.791 311.684,442.624 311.5,444C 310.774,445.735 310.774,447.235 311.5,448.5C 310.343,455.007 307.01,460.007 301.5,463.5C 298.953,462.769 296.953,463.769 295.5,466.5C 291.368,467.134 287.368,468.134 283.5,469.5C 282.053,468.115 281.053,468.448 280.5,470.5C 280.167,470.5 279.833,470.5 279.5,470.5C 279.083,469.876 278.416,469.543 277.5,469.5C 276.287,469.747 275.62,470.414 275.5,471.5C 273.804,469.871 272.804,470.204 272.5,472.5C 270.194,472.993 267.861,473.326 265.5,473.5C 263.801,473.34 262.134,473.506 260.5,474C 261.056,474.383 261.389,474.883 261.5,475.5C 260.833,475.5 260.167,475.5 259.5,475.5C 258.903,474.861 258.07,474.528 257,474.5C 255.624,474.684 254.791,475.351 254.5,476.5C 253.041,476.433 251.708,476.766 250.5,477.5C 249.666,476.252 248.333,475.585 246.5,475.5C 245.167,475.667 243.833,475.833 242.5,476C 243.056,476.383 243.389,476.883 243.5,477.5C 242.5,477.5 241.5,477.5 240.5,477.5C 238.621,476.659 236.621,476.325 234.5,476.5C 232.473,476.662 230.473,476.495 228.5,476C 229.416,475.722 230.082,475.222 230.5,474.5C 231.609,474.443 232.609,474.11 233.5,473.5C 234.043,473.44 234.376,473.107 234.5,472.5C 230.353,471.833 226.353,471.166 222.5,470.5C 238.512,469.376 254.512,467.876 270.5,466C 278.055,463.224 285.389,459.89 292.5,456C 296.266,453.41 298.6,449.91 299.5,445.5C 297.801,445.66 296.134,445.494 294.5,445C 298.335,444.053 301.668,442.22 304.5,439.5C 304.981,435.257 306.148,431.257 308,427.5C 308.852,403.457 310.352,379.457 312.5,355.5C 314.211,351.119 314.877,346.453 314.5,341.5C 316.522,320.205 318.022,298.872 319,277.5C 320.264,272.303 322.097,267.303 324.5,262.5C 322.646,257.957 320.646,253.457 318.5,249C 319.452,246.335 320.785,243.835 322.5,241.5C 322.833,237.833 323.167,234.167 323.5,230.5C 322.178,219.885 321.512,209.218 321.5,198.5C 321.833,198.5 322.167,198.5 322.5,198.5C 324.968,197.097 325.634,195.097 324.5,192.5C 328.322,191.82 329.989,189.487 329.5,185.5C 329.284,183.319 330.117,181.653 332,180.5C 332.5,174.175 332.666,167.842 332.5,161.5C 333.29,160.391 333.79,159.058 334,157.5C 334.746,145.807 334.58,134.14 333.5,122.5C 325.065,121.846 317.065,122.846 309.5,125.5C 303.463,125.988 297.463,126.655 291.5,127.5C 283.221,127.368 275.221,128.368 267.5,130.5C 243.844,132.043 220.177,133.377 196.5,134.5C 195.209,134.263 194.209,134.596 193.5,135.5C 193.167,135.5 192.833,135.5 192.5,135.5C 191.848,134.275 190.681,133.608 189,133.5C 186.621,132.805 184.455,132.805 182.5,133.5C 175.742,133.799 169.409,133.799 163.5,133.5C 163.389,132.883 163.056,132.383 162.5,132C 158.973,131.192 155.64,131.359 152.5,132.5C 141.915,131.524 131.248,131.191 120.5,131.5C 116.702,130.517 112.702,130.183 108.5,130.5C 102.5,130.5 96.5,130.5 90.5,130.5C 88.1934,128.953 85.5267,128.287 82.5,128.5C 80.0788,128.56 77.7455,128.893 75.5,129.5C 73.8333,129.5 72.1667,129.5 70.5,129.5C 68.7211,127.656 66.3878,126.99 63.5,127.5C 59.9581,127.187 56.6248,127.521 53.5,128.5C 51.8333,128.5 50.1667,128.5 48.5,128.5C 46.2821,126.156 43.6154,125.823 40.5,127.5C 37.8333,127.5 35.1667,127.5 32.5,127.5C 30.8984,125.926 28.8984,125.259 26.5,125.5C 24.1667,125.5 21.8333,125.5 19.5,125.5C 17.7354,124.539 15.7354,124.205 13.5,124.5C 13.1667,124.5 12.8333,124.5 12.5,124.5C 11.4479,122.744 9.78121,122.077 7.5,122.5C 6.52173,129.121 5.52173,129.121 4.5,122.5C 4.04311,121.702 3.37644,121.369 2.5,121.5C 2.5,120.833 2.5,120.167 2.5,119.5C 3.88516,118.053 3.55182,117.053 1.5,116.5C 1.5,116.167 1.5,115.833 1.5,115.5C 2.71994,113.716 2.71994,112.05 1.5,110.5C 1.26269,109.209 1.59603,108.209 2.5,107.5C 5.83333,106.833 7.83333,104.833 8.5,101.5C 8.5,100.833 8.83333,100.5 9.5,100.5C 11.6869,101.434 13.3536,100.767 14.5,98.5C 15.209,97.596 16.209,97.2627 17.5,97.5C 22.1812,96.2376 26.8479,96.2376 31.5,97.5 Z M 209.5,117.5 C 208.4,118.605 207.733,119.938 207.5,121.5C 207.167,121.5 206.833,121.5 206.5,121.5C 206.088,119.027 207.088,117.694 209.5,117.5 Z"/></g>
<g><path style="opacity:0.059" fill="#c0b3ad" d="M 53.5,95.5 C 53.0269,96.9063 52.0269,97.573 50.5,97.5C 50.8212,95.9519 51.8212,95.2852 53.5,95.5 Z"/></g>
<g><path style="opacity:0.059" fill="#c2c5b3" d="M 222.5,97.5 C 222.897,96.475 223.563,96.3083 224.5,97C 223.906,97.4643 223.239,97.631 222.5,97.5 Z"/></g>
<g><path style="opacity:0.243" fill="#9b9a95" d="M 37.5,97.5 C 38.3382,97.8417 38.6716,98.5084 38.5,99.5C 37.0502,100.658 36.0502,100.158 35.5,98C 36.0944,97.5357 36.7611,97.369 37.5,97.5 Z"/></g>
<g><path style="opacity:0.243" fill="#7f7d7a" d="M 44.5,98.5 C 43.0813,99.4511 41.4147,99.7845 39.5,99.5C 39.7911,98.3509 40.6244,97.6842 42,97.5C 43.0698,97.528 43.9032,97.8614 44.5,98.5 Z"/></g>
<g><path style="opacity:0.11" fill="#d5d4bc" d="M 227.5,97.5 C 226.534,100.469 224.867,102.802 222.5,104.5C 223.228,102.488 224.062,100.488 225,98.5C 225.671,97.7476 226.504,97.4142 227.5,97.5 Z"/></g>
<g><path style="opacity:0.898" fill="#777574" d="M 14.5,98.5 C 13.3536,100.767 11.6869,101.434 9.5,100.5C 10.7804,99.0687 12.4471,98.4021 14.5,98.5 Z"/></g>
<g><path style="opacity:0.235" fill="#d0cfc6" d="M 216.5,105.5 C 216.382,100.946 218.382,98.9463 222.5,99.5C 220.478,101.609 218.478,103.609 216.5,105.5 Z"/></g>
<g><path style="opacity:1" fill="#e0d48b" d="M 266.5,98.5 C 275.664,98.9588 275.664,99.9588 266.5,101.5C 266.5,100.5 266.5,99.5 266.5,98.5 Z"/></g>
<g><path style="opacity:0.235" fill="#bdbcb7" d="M 25.5,104.5 C 24.791,105.404 23.791,105.737 22.5,105.5C 23.0527,103.448 24.0527,103.115 25.5,104.5 Z"/></g>
<g><path style="opacity:1" fill="#e8e2c0" d="M 258.5,102.5 C 259.552,102.351 260.552,102.517 261.5,103C 258.962,104.359 256.629,106.026 254.5,108C 252.553,108.991 250.553,109.325 248.5,109C 251.728,106.56 255.061,104.394 258.5,102.5 Z"/></g>
<g><path style="opacity:1" fill="#75746e" d="M 8.5,101.5 C 7.83333,104.833 5.83333,106.833 2.5,107.5C 2.36899,106.761 2.53566,106.094 3,105.5C 5.03366,104.279 6.867,102.945 8.5,101.5 Z"/></g>
<g><path style="opacity:1" fill="#e9e6d0" d="M 226.5,125.5 C 225.833,125.5 225.167,125.5 224.5,125.5C 224.461,124.417 224.127,123.417 223.5,122.5C 224.982,120.517 226.649,118.684 228.5,117C 225.896,116.209 223.896,114.709 222.5,112.5C 225.564,114.343 228.897,114.843 232.5,114C 237.019,110.966 241.352,107.799 245.5,104.5C 248.623,102.498 251.956,101.331 255.5,101C 253.999,102.252 252.332,103.252 250.5,104C 248.689,106.978 246.356,109.478 243.5,111.5C 237.961,112.936 232.961,115.436 228.5,119C 225.679,120.621 225.013,122.788 226.5,125.5 Z"/></g>
<g><path style="opacity:0.059" fill="#c3c0b6" d="M 9.5,110.5 C 12.1667,111.167 13.8333,112.833 14.5,115.5C 13.8333,112.833 12.1667,111.167 9.5,110.5 Z"/></g>
<g><path style="opacity:0.996" fill="#a8a5a4" d="M 1.5,110.5 C 2.71994,112.05 2.71994,113.716 1.5,115.5C 0.166667,113.833 0.166667,112.167 1.5,110.5 Z"/></g>
<g><path style="opacity:0.878" fill="#cccec1" d="M 216.5,115.5 C 215.5,115.5 214.5,115.5 213.5,115.5C 214.5,112.833 215.5,112.833 216.5,115.5 Z"/></g>
<g><path style="opacity:1" fill="#f1d524" d="M 213.5,115.5 C 214.5,115.5 215.5,115.5 216.5,115.5C 217.678,118.477 217.678,121.477 216.5,124.5C 213.754,126.126 210.754,126.793 207.5,126.5C 207.5,124.833 207.5,123.167 207.5,121.5C 209.833,119.833 211.833,117.833 213.5,115.5 Z"/></g>
<g><path style="opacity:1" fill="#a4a3a2" d="M 1.5,116.5 C 3.55182,117.053 3.88516,118.053 2.5,119.5C 1.59603,118.791 1.26269,117.791 1.5,116.5 Z"/></g>
<g><path style="opacity:0.722" fill="#b0aea7" d="M 23.5,117.5 C 24.791,117.263 25.791,117.596 26.5,118.5C 25.0527,119.885 24.0527,119.552 23.5,117.5 Z"/></g>
<g><path style="opacity:1" fill="#e0d386" d="M 216.5,115.5 C 218.89,115.685 219.89,117.018 219.5,119.5C 219.714,121.942 218.714,123.608 216.5,124.5C 217.678,121.477 217.678,118.477 216.5,115.5 Z"/></g>
<g><path style="opacity:0.761" fill="#a9aba6" d="M 27.5,118.5 C 29.4147,118.216 31.0813,118.549 32.5,119.5C 31.9032,120.139 31.0698,120.472 30,120.5C 28.6244,120.316 27.7911,119.649 27.5,118.5 Z"/></g>
<g><path style="opacity:0.235" fill="#c8c8bf" d="M 216.5,105.5 C 213.662,109.172 211.329,113.172 209.5,117.5C 207.088,117.694 206.088,119.027 206.5,121.5C 205.833,121.5 205.5,121.833 205.5,122.5C 204.662,122.842 204.328,123.508 204.5,124.5C 202.973,124.427 201.973,125.094 201.5,126.5C 198.615,126.806 195.948,126.473 193.5,125.5C 196.028,124.834 198.694,124.168 201.5,123.5C 205.197,118.302 208.697,112.969 212,107.5C 213.11,105.963 214.61,105.297 216.5,105.5 Z"/></g>
<g><path style="opacity:1" fill="#d2cca7" d="M 213.5,115.5 C 211.833,117.833 209.833,119.833 207.5,121.5C 207.733,119.938 208.4,118.605 209.5,117.5C 210.605,116.4 211.938,115.733 213.5,115.5 Z"/></g>
<g><path style="opacity:0.784" fill="#c2c2ba" d="M 35.5,119.5 C 37.3797,119.229 38.713,119.896 39.5,121.5C 37.8008,121.66 36.1341,121.494 34.5,121C 35.056,120.617 35.3893,120.117 35.5,119.5 Z"/></g>
<g><path style="opacity:1" fill="#9c9a98" d="M 55.5,122.5 C 57.7354,122.205 59.7354,122.539 61.5,123.5C 60.9032,124.139 60.0698,124.472 59,124.5C 57.3009,124.613 56.1342,123.947 55.5,122.5 Z"/></g>
<g><path style="opacity:1" fill="#b9a026" d="M 280.5,122.5 C 276.213,124.735 271.546,125.735 266.5,125.5C 270.718,123.584 275.385,122.584 280.5,122.5 Z"/></g>
<g><path style="opacity:1" fill="#d6ae2e" d="M 332.5,161.5 C 332.666,167.842 332.5,174.175 332,180.5C 330.117,181.653 329.284,183.319 329.5,185.5C 313.539,186.98 297.539,187.647 281.5,187.5C 281.5,187.167 281.5,186.833 281.5,186.5C 289.964,183.749 296.964,178.749 302.5,171.5C 306.672,163.156 310.838,154.823 315,146.5C 317.129,139.987 318.296,133.32 318.5,126.5C 318.5,125.5 318.5,124.5 318.5,123.5C 323.167,123.5 327.833,123.5 332.5,123.5C 332.5,136.167 332.5,148.833 332.5,161.5 Z"/></g>
<g><path style="opacity:0.792" fill="#949391" d="M 13.5,124.5 C 15.7354,124.205 17.7354,124.539 19.5,125.5C 17.3279,126.448 15.3279,126.115 13.5,124.5 Z"/></g>
<g><path style="opacity:1" fill="#9c9b98" d="M 64.5,123.5 C 74.015,123.173 83.3483,123.506 92.5,124.5C 83.6762,125.657 74.6762,125.824 65.5,125C 64.944,124.617 64.6107,124.117 64.5,123.5 Z"/></g>
<g><path style="opacity:0.122" fill="#5c5c5b" d="M 105.5,124.5 C 109.833,124.5 114.167,124.5 118.5,124.5C 118.5,125.167 118.5,125.833 118.5,126.5C 113.489,126.666 108.489,126.499 103.5,126C 104.416,125.722 105.082,125.222 105.5,124.5 Z"/></g>
<g><path style="opacity:0.98" fill="#171819" d="M 2.5,121.5 C 3.37644,121.369 4.04311,121.702 4.5,122.5C 5.52173,129.121 6.52173,129.121 7.5,122.5C 9.78121,122.077 11.4479,122.744 12.5,124.5C 11.448,124.351 10.448,124.517 9.5,125C 10.3805,125.708 11.0472,126.542 11.5,127.5C 11.369,128.239 11.5357,128.906 12,129.5C 13.3024,130.085 14.469,130.751 15.5,131.5C 14.5,131.5 13.5,131.5 12.5,131.5C 11.3065,131.97 10.6399,132.97 10.5,134.5C 10.6399,136.03 11.3065,137.03 12.5,137.5C 13.3918,142.516 14.3918,147.516 15.5,152.5C 15.2591,155.034 16.2591,156.7 18.5,157.5C 19.1667,158.833 20.1667,159.833 21.5,160.5C 22.1485,162.586 23.6485,163.586 26,163.5C 27.3756,163.316 28.2089,162.649 28.5,161.5C 29.1667,161.5 29.8333,161.5 30.5,161.5C 30.56,162.043 30.8933,162.376 31.5,162.5C 33.2131,162.121 34.2131,161.121 34.5,159.5C 37.619,157.573 40.9523,156.239 44.5,155.5C 45.9473,156.885 46.9473,156.552 47.5,154.5C 48.1667,154.5 48.8333,154.5 49.5,154.5C 50.0968,155.139 50.9302,155.472 52,155.5C 53.3756,155.316 54.2089,154.649 54.5,153.5C 62.4149,152.071 70.4149,151.404 78.5,151.5C 80.4832,151.843 81.8166,151.176 82.5,149.5C 85.1667,149.5 87.8333,149.5 90.5,149.5C 95.3158,150.65 100.316,150.816 105.5,150C 104.944,149.617 104.611,149.117 104.5,148.5C 109.5,148.5 114.5,148.5 119.5,148.5C 120.209,149.404 121.209,149.737 122.5,149.5C 102.067,152.675 81.4004,155.175 60.5,157C 52.6552,159.393 44.6552,161.393 36.5,163C 35,165.833 32.8333,168 30,169.5C 28.566,173.406 28.2327,177.406 29,181.5C 30.3189,183.487 32.1523,184.654 34.5,185C 40.9073,185.44 47.2406,186.273 53.5,187.5C 51.752,188.789 51.4186,190.289 52.5,192C 51.8333,192.167 51.1667,192.333 50.5,192.5C 44.4602,190.752 38.4602,189.085 32.5,187.5C 29.0933,187.367 28.7599,188.534 31.5,191C 30.2068,191.49 28.8734,191.657 27.5,191.5C 28.1655,197.492 28.8322,203.492 29.5,209.5C 29.4439,211.64 28.7773,213.306 27.5,214.5C 27.5,214.167 27.5,213.833 27.5,213.5C 28.1239,213.083 28.4573,212.416 28.5,211.5C 28.2528,210.287 27.5862,209.62 26.5,209.5C 26.5,209.167 26.5,208.833 26.5,208.5C 27.1386,207.903 27.472,207.07 27.5,206C 27.3158,204.624 26.6491,203.791 25.5,203.5C 25.5,203.167 25.5,202.833 25.5,202.5C 26.7574,201.377 26.4241,200.711 24.5,200.5C 24.3259,198.139 23.9926,195.806 23.5,193.5C 23.8432,191.517 23.1765,190.183 21.5,189.5C 21.5,189.167 21.5,188.833 21.5,188.5C 22.6129,187.054 22.7796,185.387 22,183.5C 21.8784,181.563 21.045,180.23 19.5,179.5C 19.5,179.167 19.5,178.833 19.5,178.5C 20.7574,177.377 20.4241,176.711 18.5,176.5C 18.5,176.167 18.5,175.833 18.5,175.5C 18.1219,172.978 17.2886,170.645 16,168.5C 15.8333,169.833 15.6667,171.167 15.5,172.5C 15.5854,174.333 16.2521,175.666 17.5,176.5C 17.5,177.167 17.5,177.833 17.5,178.5C 16.3775,180.288 16.2109,182.288 17,184.5C 17.4169,185.756 18.2502,186.423 19.5,186.5C 19.6287,188.216 19.962,189.883 20.5,191.5C 20.2155,193.415 20.5489,195.081 21.5,196.5C 21.2852,198.179 21.9519,199.179 23.5,199.5C 23.5,200.167 23.5,200.833 23.5,201.5C 22.1148,202.947 22.4482,203.947 24.5,204.5C 24.5,205.5 24.5,206.5 24.5,207.5C 23.2426,208.623 23.5759,209.289 25.5,209.5C 25.5,210.833 25.5,212.167 25.5,213.5C 24.8333,215.167 24.1667,216.833 23.5,218.5C 23.7148,216.821 23.0481,215.821 21.5,215.5C 21.5,215.167 21.5,214.833 21.5,214.5C 22.7574,213.377 22.4241,212.711 20.5,212.5C 19.1817,207.227 18.1817,201.893 17.5,196.5C 17.6602,194.801 17.4935,193.134 17,191.5C 16.6174,192.056 16.1174,192.389 15.5,192.5C 14.4937,192.062 14.4937,191.396 15.5,190.5C 16.8852,189.053 16.5518,188.053 14.5,187.5C 14.5,186.167 14.5,184.833 14.5,183.5C 15.8852,182.053 15.5518,181.053 13.5,180.5C 13.4431,179.391 13.1098,178.391 12.5,177.5C 15.0479,175.704 15.0479,174.038 12.5,172.5C 11.6561,168.901 11.3227,165.234 11.5,161.5C 11.6602,159.801 11.4935,158.134 11,156.5C 10.6174,157.056 10.1174,157.389 9.5,157.5C 9.5,156.167 9.5,154.833 9.5,153.5C 10.1239,153.083 10.4573,152.416 10.5,151.5C 10.2528,150.287 9.58617,149.62 8.5,149.5C 8.5,148.5 8.5,147.5 8.5,146.5C 9.12395,146.083 9.45728,145.416 9.5,144.5C 9.25284,143.287 8.58617,142.62 7.5,142.5C 7.5,142.167 7.5,141.833 7.5,141.5C 8.13863,140.903 8.47196,140.07 8.5,139C 8.31577,137.624 7.64911,136.791 6.5,136.5C 6.36896,132.465 5.03563,128.965 2.5,126C 3.41321,124.586 3.41321,123.086 2.5,121.5 Z M 18.5,178.5 C 18.8333,178.5 19.1667,178.5 19.5,178.5C 19.5,178.833 19.5,179.167 19.5,179.5C 19.6761,182.727 20.3428,185.727 21.5,188.5C 21.5,188.833 21.5,189.167 21.5,189.5C 21.6716,190.492 21.3382,191.158 20.5,191.5C 19.962,189.883 19.6287,188.216 19.5,186.5C 18.7347,183.904 18.4013,181.237 18.5,178.5 Z M 23.5,193.5 C 23.9926,195.806 24.3259,198.139 24.5,200.5C 24.5,201.167 24.1667,201.5 23.5,201.5C 23.5,200.833 23.5,200.167 23.5,199.5C 23.573,197.973 22.9063,196.973 21.5,196.5C 21.3433,195.127 21.51,193.793 22,192.5C 22.3826,193.056 22.8826,193.389 23.5,193.5 Z"/></g>
<g><path style="opacity:0.773" fill="#d0d3cb" d="M 118.5,124.5 C 124.923,124.209 131.256,124.542 137.5,125.5C 131.355,126.49 125.022,126.823 118.5,126.5C 118.5,125.833 118.5,125.167 118.5,124.5 Z"/></g>
<g><path style="opacity:1" fill="#7c7c73" d="M 206.5,121.5 C 206.833,121.5 207.167,121.5 207.5,121.5C 207.5,123.167 207.5,124.833 207.5,126.5C 205.5,126.5 203.5,126.5 201.5,126.5C 201.973,125.094 202.973,124.427 204.5,124.5C 205.338,124.158 205.672,123.492 205.5,122.5C 206.167,122.5 206.5,122.167 206.5,121.5 Z"/></g>
<g><path style="opacity:1" fill="#f3d725" d="M 309.5,125.5 C 312.609,125.264 315.609,125.597 318.5,126.5C 318.296,133.32 317.129,139.987 315,146.5C 310.838,154.823 306.672,163.156 302.5,171.5C 296.964,178.749 289.964,183.749 281.5,186.5C 272.535,187.581 263.535,187.748 254.5,187C 252.955,185.312 251.955,183.312 251.5,181C 249.741,180.202 248.074,180.369 246.5,181.5C 247.325,182.386 248.325,182.719 249.5,182.5C 249.5,183.833 249.5,185.167 249.5,186.5C 247.486,186.392 245.82,187.058 244.5,188.5C 239.87,189.229 235.203,189.563 230.5,189.5C 230.715,187.821 230.048,186.821 228.5,186.5C 228.631,185.624 228.298,184.957 227.5,184.5C 222.107,192.873 215.94,193.54 209,186.5C 207.092,181.178 207.092,175.845 209,170.5C 214.324,161.186 216.324,151.186 215,140.5C 209.027,154.711 204.694,169.377 202,184.5C 200.035,187.079 197.535,189.079 194.5,190.5C 193.287,190.253 192.62,189.586 192.5,188.5C 192.337,186.143 192.503,183.81 193,181.5C 195.181,178.125 196.681,174.458 197.5,170.5C 199.453,165.594 201.12,160.594 202.5,155.5C 199.813,155.336 197.146,155.503 194.5,156C 187.498,164.693 181.665,174.193 177,184.5C 173.891,188.175 170.391,191.175 166.5,193.5C 163.833,193.5 161.167,193.5 158.5,193.5C 158.34,191.801 158.506,190.134 159,188.5C 167.667,179.167 176.333,169.833 185,160.5C 187.72,157.445 190.053,154.112 192,150.5C 192.688,149.668 192.521,149.002 191.5,148.5C 181.936,158.628 172.603,168.962 163.5,179.5C 155.865,186.983 146.865,191.816 136.5,194C 137.094,194.464 137.761,194.631 138.5,194.5C 138.5,194.833 138.5,195.167 138.5,195.5C 135.375,196.479 132.042,196.813 128.5,196.5C 128.414,195.504 128.748,194.671 129.5,194C 135.31,189.157 141.31,184.824 147.5,181C 160.099,168.895 172.765,157.061 185.5,145.5C 187.93,143.947 189.93,141.947 191.5,139.5C 194.189,138.811 195.856,137.144 196.5,134.5C 220.177,133.377 243.844,132.043 267.5,130.5C 275.757,130.468 283.757,129.468 291.5,127.5C 297.463,126.655 303.463,125.988 309.5,125.5 Z"/></g>
<g><path style="opacity:1" fill="#a4a3a1" d="M 343.5,111.5 C 343.833,111.5 344.167,111.5 344.5,111.5C 344.5,117.5 344.5,123.5 344.5,129.5C 344.167,129.5 343.833,129.5 343.5,129.5C 342.167,123.5 342.167,117.5 343.5,111.5 Z"/></g>
<g><path style="opacity:0.059" fill="#afafa4" d="M 26.5,125.5 C 28.8984,125.259 30.8984,125.926 32.5,127.5C 32.5654,127.938 32.3988,128.272 32,128.5C 29.7908,128.011 27.9575,127.011 26.5,125.5 Z"/></g>
<g><path style="opacity:0.118" fill="#979791" d="M 48.5,128.5 C 45.6146,128.806 42.9479,128.473 40.5,127.5C 43.6154,125.823 46.2821,126.156 48.5,128.5 Z"/></g>
<g><path style="opacity:0.243" fill="#abaaa7" d="M 63.5,127.5 C 63.5,128.167 63.5,128.833 63.5,129.5C 61.5328,129.261 59.6995,129.594 58,130.5C 56.3775,129.901 54.8775,129.234 53.5,128.5C 56.6248,127.521 59.9581,127.187 63.5,127.5 Z"/></g>
<g><path style="opacity:0.255" fill="#53524f" d="M 63.5,127.5 C 66.3878,126.99 68.7211,127.656 70.5,129.5C 68.002,130.082 65.6687,130.082 63.5,129.5C 63.5,128.833 63.5,128.167 63.5,127.5 Z"/></g>
<g><path style="opacity:1" fill="#c1a926" d="M 291.5,127.5 C 283.757,129.468 275.757,130.468 267.5,130.5C 275.221,128.368 283.221,127.368 291.5,127.5 Z"/></g>
<g><path style="opacity:0.745" fill="#817f7e" d="M 90.5,130.5 C 89.8826,130.611 89.3826,130.944 89,131.5C 84.3993,130.858 79.8993,130.191 75.5,129.5C 77.7455,128.893 80.0788,128.56 82.5,128.5C 85.5267,128.287 88.1934,128.953 90.5,130.5 Z"/></g>
<g><path style="opacity:0.773" fill="#9b9b97" d="M 11.5,127.5 C 13.7567,127.962 15.7567,128.962 17.5,130.5C 17.0431,131.298 16.3764,131.631 15.5,131.5C 14.469,130.751 13.3024,130.085 12,129.5C 11.5357,128.906 11.369,128.239 11.5,127.5 Z"/></g>
<g><path style="opacity:0.906" fill="#939191" d="M 108.5,130.5 C 112.702,130.183 116.702,130.517 120.5,131.5C 116.363,132.288 112.363,131.954 108.5,130.5 Z"/></g>
<g><path style="opacity:1" fill="#b29329" d="M 332.5,161.5 C 332.5,148.833 332.5,136.167 332.5,123.5C 327.833,123.5 323.167,123.5 318.5,123.5C 318.5,124.5 318.5,125.5 318.5,126.5C 315.609,125.597 312.609,125.264 309.5,125.5C 317.065,122.846 325.065,121.846 333.5,122.5C 334.58,134.14 334.746,145.807 334,157.5C 333.79,159.058 333.29,160.391 332.5,161.5 Z"/></g>
<g><path style="opacity:1" fill="#f3f1e8" d="M 304.5,130.5 C 309.085,129.592 311.418,131.425 311.5,136C 310.513,142.144 308.013,147.644 304,152.5C 304.593,148.359 305.426,144.193 306.5,140C 306.477,136.927 305.477,134.26 303.5,132C 304.056,131.617 304.389,131.117 304.5,130.5 Z"/></g>
<g><path style="opacity:0.059" fill="#b3b1a8" d="M 152.5,132.5 C 155.64,131.359 158.973,131.192 162.5,132C 163.056,132.383 163.389,132.883 163.5,133.5C 159.935,133.935 156.269,133.602 152.5,132.5 Z"/></g>
<g><path style="opacity:0.243" fill="#7d7e7e" d="M 182.5,133.5 C 184.455,132.805 186.621,132.805 189,133.5C 190.681,133.608 191.848,134.275 192.5,135.5C 188.821,135.94 185.488,135.273 182.5,133.5 Z"/></g>
<g><path style="opacity:0.122" fill="#7d7d7b" d="M 12.5,131.5 C 12.5,133.5 12.5,135.5 12.5,137.5C 11.3065,137.03 10.6399,136.03 10.5,134.5C 10.6399,132.97 11.3065,131.97 12.5,131.5 Z"/></g>
<g><path style="opacity:0.357" fill="#afa792" d="M 196.5,134.5 C 195.856,137.144 194.189,138.811 191.5,139.5C 191.733,137.938 192.4,136.605 193.5,135.5C 194.209,134.596 195.209,134.263 196.5,134.5 Z"/></g>
<g><path style="opacity:0.992" fill="#8d8c8a" d="M 6.5,136.5 C 7.64911,136.791 8.31577,137.624 8.5,139C 8.47196,140.07 8.13863,140.903 7.5,141.5C 6.54885,140.081 6.21552,138.415 6.5,136.5 Z"/></g>
<g><path style="opacity:0.588" fill="#a8a8a4" d="M 343.5,133.5 C 343.813,137.042 343.479,140.375 342.5,143.5C 341.84,142.036 341.507,140.369 341.5,138.5C 341.556,136.36 342.223,134.694 343.5,133.5 Z"/></g>
<g><path style="opacity:1" fill="#f4f1e2" d="M 237.5,142.5 C 244.1,144.648 250.433,147.482 256.5,151C 260.833,151.333 265.167,151.667 269.5,152C 274.741,154.632 279.741,157.632 284.5,161C 283.667,161.167 282.833,161.333 282,161.5C 273.765,156.734 264.932,154.4 255.5,154.5C 257.491,157.092 259.824,159.258 262.5,161C 266.628,162.564 270.628,164.398 274.5,166.5C 281.81,168.365 289.143,169.032 296.5,168.5C 293.771,171.491 290.271,172.825 286,172.5C 278.644,171.428 271.477,169.595 264.5,167C 256.469,161.216 248.635,155.049 241,148.5C 239.579,146.595 238.412,144.595 237.5,142.5 Z"/></g>
<g><path style="opacity:0.988" fill="#c3d4d7" d="M 179.5,145.5 C 172.5,145.5 165.5,145.5 158.5,145.5C 158.611,144.883 158.944,144.383 159.5,144C 165.833,143.333 172.167,143.333 178.5,144C 179.056,144.383 179.389,144.883 179.5,145.5 Z"/></g>
<g><path style="opacity:1" fill="#f4f3eb" d="M 228.5,186.5 C 228.157,188.483 228.824,189.817 230.5,190.5C 230.082,191.222 229.416,191.722 228.5,192C 207.841,194.395 187.175,194.895 166.5,193.5C 170.391,191.175 173.891,188.175 177,184.5C 181.665,174.193 187.498,164.693 194.5,156C 197.146,155.503 199.813,155.336 202.5,155.5C 201.12,160.594 199.453,165.594 197.5,170.5C 196.833,170.5 196.5,170.167 196.5,169.5C 196.813,166.753 196.48,164.086 195.5,161.5C 194.833,161.833 194.167,162.167 193.5,162.5C 188.743,168.721 184.243,175.055 180,181.5C 179.305,183.722 178.472,185.889 177.5,188C 178.443,190.981 180.443,191.981 183.5,191C 185.027,188.31 187.027,186.143 189.5,184.5C 190.117,184.389 190.617,184.056 191,183.5C 191.198,185.382 191.698,187.048 192.5,188.5C 192.62,189.586 193.287,190.253 194.5,190.5C 197.535,189.079 200.035,187.079 202,184.5C 204.694,169.377 209.027,154.711 215,140.5C 216.324,151.186 214.324,161.186 209,170.5C 207.092,175.845 207.092,181.178 209,186.5C 215.94,193.54 222.107,192.873 227.5,184.5C 228.298,184.957 228.631,185.624 228.5,186.5 Z"/></g>
<g><path style="opacity:0.31" fill="#979592" d="M 7.5,142.5 C 8.58617,142.62 9.25284,143.287 9.5,144.5C 9.45728,145.416 9.12395,146.083 8.5,146.5C 7.56552,145.432 7.23219,144.099 7.5,142.5 Z"/></g>
<g><path style="opacity:1" fill="#f4f1e3" d="M 225.5,144.5 C 227.661,144.826 229.494,145.826 231,147.5C 232.481,150.956 234.148,154.289 236,157.5C 236.781,158.944 236.614,160.277 235.5,161.5C 232.849,159.35 230.349,157.017 228,154.5C 226.648,151.28 225.814,147.947 225.5,144.5 Z"/></g>
<g><path style="opacity:1" fill="#28a8de" d="M 158.5,145.5 C 165.5,145.5 172.5,145.5 179.5,145.5C 180.5,145.5 181.5,145.5 182.5,145.5C 179.854,148.812 176.854,151.812 173.5,154.5C 160.784,162.714 149.451,172.547 139.5,184C 133.798,186.851 128.131,189.684 122.5,192.5C 114.842,193.041 107.175,193.541 99.5,194C 97.563,194.122 96.2297,194.955 95.5,196.5C 89.3715,194.913 83.0381,194.08 76.5,194C 72.8935,192.835 69.2268,191.668 65.5,190.5C 63.8767,191.476 62.5433,190.976 61.5,189C 58.7462,188.728 56.0795,188.228 53.5,187.5C 47.2406,186.273 40.9073,185.44 34.5,185C 32.1523,184.654 30.3189,183.487 29,181.5C 28.2327,177.406 28.566,173.406 30,169.5C 32.8333,168 35,165.833 36.5,163C 44.6552,161.393 52.6552,159.393 60.5,157C 81.4004,155.175 102.067,152.675 122.5,149.5C 128.026,149.821 133.36,149.488 138.5,148.5C 144.963,147.014 151.63,146.014 158.5,145.5 Z"/></g>
<g><path style="opacity:1" fill="#f5f3e7" d="M 263.5,145.5 C 266.518,145.335 269.518,145.502 272.5,146C 273.833,146.667 274.833,147.667 275.5,149C 271.179,149.499 266.846,149.666 262.5,149.5C 262.433,148.041 262.766,146.708 263.5,145.5 Z"/></g>
<g><path style="opacity:0.898" fill="#a9a7a1" d="M 342.5,146.5 C 342.737,147.791 342.404,148.791 341.5,149.5C 340.115,148.053 340.448,147.053 342.5,146.5 Z"/></g>
<g><path style="opacity:0.988" fill="#babbb4" d="M 138.5,148.5 C 133.36,149.488 128.026,149.821 122.5,149.5C 121.209,149.737 120.209,149.404 119.5,148.5C 125.65,147.982 131.983,147.982 138.5,148.5 Z"/></g>
<g><path style="opacity:0.059" fill="#b6b5ab" d="M 82.5,149.5 C 81.8166,151.176 80.4832,151.843 78.5,151.5C 79.1834,149.824 80.5168,149.157 82.5,149.5 Z"/></g>
<g><path style="opacity:1" fill="#b3b5af" d="M 104.5,148.5 C 104.611,149.117 104.944,149.617 105.5,150C 100.316,150.816 95.3158,150.65 90.5,149.5C 94.97,148.514 99.6367,148.181 104.5,148.5 Z"/></g>
<g><path style="opacity:0.275" fill="#8e8684" d="M 8.5,149.5 C 9.58617,149.62 10.2528,150.287 10.5,151.5C 10.4573,152.416 10.1239,153.083 9.5,153.5C 8.56552,152.432 8.23219,151.099 8.5,149.5 Z"/></g>
<g><path style="opacity:0.059" fill="#a7a79f" d="M 15.5,152.5 C 17.2231,153.605 18.2231,155.272 18.5,157.5C 16.2591,156.7 15.2591,155.034 15.5,152.5 Z"/></g>
<g><path style="opacity:1" fill="#f2efdf" d="M 290.5,146.5 C 292.793,148.612 295.293,150.612 298,152.5C 298.781,153.944 298.614,155.277 297.5,156.5C 294.689,155.224 292.522,153.224 291,150.5C 290.51,149.207 290.343,147.873 290.5,146.5 Z"/></g>
<g><path style="opacity:0.059" fill="#a8a89e" d="M 341.5,153.5 C 341.5,154.833 340.833,155.5 339.5,155.5C 339.131,153.007 339.797,152.34 341.5,153.5 Z"/></g>
<g><path style="opacity:0.996" fill="#7e7d79" d="M 54.5,153.5 C 54.2089,154.649 53.3756,155.316 52,155.5C 50.9302,155.472 50.0968,155.139 49.5,154.5C 50.9187,153.549 52.5853,153.216 54.5,153.5 Z"/></g>
<g><path style="opacity:0.996" fill="#ababa7" d="M 47.5,154.5 C 46.9473,156.552 45.9473,156.885 44.5,155.5C 45.209,154.596 46.209,154.263 47.5,154.5 Z"/></g>
<g><path style="opacity:0.941" fill="#96948f" d="M 11.5,161.5 C 10.5028,161.53 9.83611,161.03 9.5,160C 8.66466,158.869 8.66466,158.036 9.5,157.5C 10.1174,157.389 10.6174,157.056 11,156.5C 11.4935,158.134 11.6602,159.801 11.5,161.5 Z"/></g>
<g><path style="opacity:0.118" fill="#9d9a95" d="M 34.5,159.5 C 34.2131,161.121 33.2131,162.121 31.5,162.5C 30.8933,162.376 30.56,162.043 30.5,161.5C 31.5137,160.326 32.847,159.66 34.5,159.5 Z"/></g>
<g><path style="opacity:1" fill="#eaebe5" d="M 191.5,139.5 C 189.93,141.947 187.93,143.947 185.5,145.5C 172.765,157.061 160.099,168.895 147.5,181C 141.31,184.824 135.31,189.157 129.5,194C 128.748,194.671 128.414,195.504 128.5,196.5C 127.041,196.433 125.708,196.766 124.5,197.5C 122.435,197.517 120.435,197.85 118.5,198.5C 118.933,195.809 120.267,193.809 122.5,192.5C 128.131,189.684 133.798,186.851 139.5,184C 149.451,172.547 160.784,162.714 173.5,154.5C 176.854,151.812 179.854,148.812 182.5,145.5C 182.662,143.272 183.996,141.272 186.5,139.5C 187.192,140.025 187.692,140.692 188,141.5C 188.816,140.177 189.983,139.511 191.5,139.5 Z"/></g>
<g><path style="opacity:0.059" fill="#b2b2a7" d="M 21.5,160.5 C 23.717,161.369 26.0504,161.702 28.5,161.5C 28.2089,162.649 27.3756,163.316 26,163.5C 23.6485,163.586 22.1485,162.586 21.5,160.5 Z"/></g>
<g><path style="opacity:1" fill="#f2d72a" d="M 196.5,169.5 C 193.99,174.337 191.657,179.337 189.5,184.5C 187.027,186.143 185.027,188.31 183.5,191C 180.443,191.981 178.443,190.981 177.5,188C 178.472,185.889 179.305,183.722 180,181.5C 184.243,175.055 188.743,168.721 193.5,162.5C 194.167,162.167 194.833,161.833 195.5,161.5C 196.48,164.086 196.813,166.753 196.5,169.5 Z"/></g>
<g><path style="opacity:0.996" fill="#8d8d8b" d="M 338.5,162.5 C 338.806,165.385 338.473,168.052 337.5,170.5C 335.898,167.466 336.231,164.799 338.5,162.5 Z"/></g>
<g><path style="opacity:0.059" fill="#babab2" d="M 18.5,175.5 C 17.8333,175.5 17.5,175.833 17.5,176.5C 16.2521,175.666 15.5854,174.333 15.5,172.5C 15.6667,171.167 15.8333,169.833 16,168.5C 17.2886,170.645 18.1219,172.978 18.5,175.5 Z"/></g>
<g><path style="opacity:1" fill="#f0efe1" d="M 158.5,193.5 C 151.869,194.331 145.202,194.664 138.5,194.5C 137.761,194.631 137.094,194.464 136.5,194C 146.865,191.816 155.865,186.983 163.5,179.5C 172.603,168.962 181.936,158.628 191.5,148.5C 192.521,149.002 192.688,149.668 192,150.5C 190.053,154.112 187.72,157.445 185,160.5C 176.333,169.833 167.667,179.167 159,188.5C 158.506,190.134 158.34,191.801 158.5,193.5 Z"/></g>
<g><path style="opacity:1" fill="#a5a19d" d="M 337.5,173.5 C 337.768,175.099 337.434,176.432 336.5,177.5C 335.876,177.083 335.543,176.416 335.5,175.5C 335.747,174.287 336.414,173.62 337.5,173.5 Z"/></g>
<g><path style="opacity:0.533" fill="#a19f9c" d="M 12.5,172.5 C 15.0479,174.038 15.0479,175.704 12.5,177.5C 12.5,175.833 12.5,174.167 12.5,172.5 Z"/></g>
<g><path style="opacity:0.792" fill="#959492" d="M 18.5,176.5 C 20.4241,176.711 20.7574,177.377 19.5,178.5C 19.1667,178.5 18.8333,178.5 18.5,178.5C 18.5,177.833 18.5,177.167 18.5,176.5 Z"/></g>
<g><path style="opacity:0.235" fill="#a5a4a1" d="M 13.5,180.5 C 15.5518,181.053 15.8852,182.053 14.5,183.5C 12.5188,182.895 12.1854,181.895 13.5,180.5 Z"/></g>
<g><path style="opacity:1" fill="#939390" d="M 19.5,179.5 C 21.045,180.23 21.8784,181.563 22,183.5C 22.7796,185.387 22.6129,187.054 21.5,188.5C 20.3428,185.727 19.6761,182.727 19.5,179.5 Z"/></g>
<g><path style="opacity:1" fill="#efeee4" d="M 281.5,186.5 C 281.5,186.833 281.5,187.167 281.5,187.5C 278.382,187.768 275.716,188.768 273.5,190.5C 272.5,190.5 271.5,190.5 270.5,190.5C 261.167,190.5 251.833,190.5 242.5,190.5C 243.167,189.833 243.833,189.167 244.5,188.5C 245.82,187.058 247.486,186.392 249.5,186.5C 249.5,185.167 249.5,183.833 249.5,182.5C 248.325,182.719 247.325,182.386 246.5,181.5C 248.074,180.369 249.741,180.202 251.5,181C 251.955,183.312 252.955,185.312 254.5,187C 263.535,187.748 272.535,187.581 281.5,186.5 Z"/></g>
<g><path style="opacity:1" fill="#e2dab2" d="M 196.5,169.5 C 196.5,170.167 196.833,170.5 197.5,170.5C 196.681,174.458 195.181,178.125 193,181.5C 192.503,183.81 192.337,186.143 192.5,188.5C 191.698,187.048 191.198,185.382 191,183.5C 190.617,184.056 190.117,184.389 189.5,184.5C 191.657,179.337 193.99,174.337 196.5,169.5 Z"/></g>
<g><path style="opacity:1" fill="#656462" d="M 17.5,178.5 C 17.8333,178.5 18.1667,178.5 18.5,178.5C 18.4013,181.237 18.7347,183.904 19.5,186.5C 18.2502,186.423 17.4169,185.756 17,184.5C 16.2109,182.288 16.3775,180.288 17.5,178.5 Z"/></g>
<g><path style="opacity:0.118" fill="#a9aaa3" d="M 336.5,183.5 C 336.737,184.791 336.404,185.791 335.5,186.5C 334.115,185.053 334.448,184.053 336.5,183.5 Z"/></g>
<g><path style="opacity:1" fill="#3796a7" d="M 329.5,185.5 C 329.989,189.487 328.322,191.82 324.5,192.5C 323.542,194.302 322.875,196.302 322.5,198.5C 322.167,198.5 321.833,198.5 321.5,198.5C 306.607,213.882 290.274,227.715 272.5,240C 263.323,244.839 253.657,248.505 243.5,251C 209.488,258.291 175.488,258.291 141.5,251C 136.773,248.422 131.773,246.422 126.5,245C 120.521,241.03 114.521,237.03 108.5,233C 104.799,228.98 102.465,224.313 101.5,219C 101.694,217.14 102.028,215.307 102.5,213.5C 102.747,212.287 103.414,211.62 104.5,211.5C 106.874,212.686 109.208,212.686 111.5,211.5C 111.5,213.167 111.5,214.833 111.5,216.5C 122.057,219.912 132.891,222.245 144,223.5C 149.026,223.432 154.026,223.432 159,223.5C 165.105,224.117 171.105,225.117 177,226.5C 179.051,226.577 180.884,226.077 182.5,225C 181.675,222.222 181.008,219.389 180.5,216.5C 182.344,218.279 183.01,220.612 182.5,223.5C 185.285,224.084 186.952,223.084 187.5,220.5C 191.742,224.57 196.742,225.57 202.5,223.5C 204.453,224.024 206.12,225.024 207.5,226.5C 211.545,224.904 215.712,223.571 220,222.5C 220.333,222.833 220.667,223.167 221,223.5C 227.091,222.152 233.257,220.985 239.5,220C 241.263,218.398 243.096,217.898 245,218.5C 246.067,217.809 247.234,217.309 248.5,217C 244.644,216.823 240.977,216.323 237.5,215.5C 242.167,215.5 246.833,215.5 251.5,215.5C 253.308,215.509 254.975,215.009 256.5,214C 261.833,210.667 267.167,207.333 272.5,204C 274,201.167 276.167,199 279,197.5C 280.202,195.323 280.702,192.989 280.5,190.5C 278.167,190.5 275.833,190.5 273.5,190.5C 275.716,188.768 278.382,187.768 281.5,187.5C 297.539,187.647 313.539,186.98 329.5,185.5 Z"/></g>
<g><path style="opacity:1" fill="#018fcf" d="M 53.5,187.5 C 56.0795,188.228 58.7462,188.728 61.5,189C 62.5433,190.976 63.8767,191.476 65.5,190.5C 69.2268,191.668 72.8935,192.835 76.5,194C 83.0381,194.08 89.3715,194.913 95.5,196.5C 102.841,197.093 110.174,197.76 117.5,198.5C 115.788,202.542 112.788,205.208 108.5,206.5C 107.143,208.186 105.81,209.852 104.5,211.5C 103.414,211.62 102.747,212.287 102.5,213.5C 102.028,215.307 101.694,217.14 101.5,219C 102.465,224.313 104.799,228.98 108.5,233C 114.521,237.03 120.521,241.03 126.5,245C 131.773,246.422 136.773,248.422 141.5,251C 175.488,258.291 209.488,258.291 243.5,251C 253.657,248.505 263.323,244.839 272.5,240C 290.274,227.715 306.607,213.882 321.5,198.5C 321.512,209.218 322.178,219.885 323.5,230.5C 323.167,234.167 322.833,237.833 322.5,241.5C 320.785,243.835 319.452,246.335 318.5,249C 320.646,253.457 322.646,257.957 324.5,262.5C 322.097,267.303 320.264,272.303 319,277.5C 318.022,298.872 316.522,320.205 314.5,341.5C 313.028,345.919 312.362,350.586 312.5,355.5C 310.352,379.457 308.852,403.457 308,427.5C 306.148,431.257 304.981,435.257 304.5,439.5C 301.668,442.22 298.335,444.053 294.5,445C 296.134,445.494 297.801,445.66 299.5,445.5C 298.6,449.91 296.266,453.41 292.5,456C 285.389,459.89 278.055,463.224 270.5,466C 254.512,467.876 238.512,469.376 222.5,470.5C 189.742,471.386 157.076,470.219 124.5,467C 118.714,465.032 112.714,463.698 106.5,463C 102.907,460.36 99.4072,457.527 96,454.5C 94.7132,450.63 93.0465,446.964 91,443.5C 88.697,431.999 85.8637,420.666 82.5,409.5C 84.5273,409.662 86.5273,409.495 88.5,409C 83.3735,405.378 80.0402,400.545 78.5,394.5C 78.7494,391.823 79.7494,389.49 81.5,387.5C 79.5,386.833 77.5,386.167 75.5,385.5C 60.463,340.71 48.2963,295.044 39,248.5C 37.5415,246.568 36.3748,244.568 35.5,242.5C 33.3739,233.667 32.0405,224.667 31.5,215.5C 30.8165,215.863 30.1499,216.196 29.5,216.5C 28.8333,215.833 28.1667,215.167 27.5,214.5C 28.7773,213.306 29.4439,211.64 29.5,209.5C 28.8322,203.492 28.1655,197.492 27.5,191.5C 28.8734,191.657 30.2068,191.49 31.5,191C 28.7599,188.534 29.0933,187.367 32.5,187.5C 38.4602,189.085 44.4602,190.752 50.5,192.5C 51.1667,192.333 51.8333,192.167 52.5,192C 51.4186,190.289 51.752,188.789 53.5,187.5 Z"/></g>
<g><path style="opacity:0.773" fill="#bfc2bc" d="M 14.5,187.5 C 16.5518,188.053 16.8852,189.053 15.5,190.5C 14.596,189.791 14.2627,188.791 14.5,187.5 Z"/></g>
<g><path style="opacity:1" fill="#dfd384" d="M 228.5,186.5 C 230.048,186.821 230.715,187.821 230.5,189.5C 235.203,189.563 239.87,189.229 244.5,188.5C 243.833,189.167 243.167,189.833 242.5,190.5C 238.5,190.5 234.5,190.5 230.5,190.5C 228.824,189.817 228.157,188.483 228.5,186.5 Z"/></g>
<g><path style="opacity:1" fill="#3ca2a2" d="M 270.5,190.5 C 271.5,190.5 272.5,190.5 273.5,190.5C 275.833,190.5 278.167,190.5 280.5,190.5C 280.702,192.989 280.202,195.323 279,197.5C 276.167,199 274,201.167 272.5,204C 267.167,207.333 261.833,210.667 256.5,214C 254.975,215.009 253.308,215.509 251.5,215.5C 252.172,214.733 253.005,214.066 254,213.5C 256.537,206.649 259.371,199.983 262.5,193.5C 265.092,192.083 267.759,191.083 270.5,190.5 Z"/></g>
<g><path style="opacity:0.4" fill="#bcb5b1" d="M 21.5,189.5 C 23.1765,190.183 23.8432,191.517 23.5,193.5C 22.8826,193.389 22.3826,193.056 22,192.5C 21.51,193.793 21.3433,195.127 21.5,196.5C 20.5489,195.081 20.2155,193.415 20.5,191.5C 21.3382,191.158 21.6716,190.492 21.5,189.5 Z"/></g>
<g><path style="opacity:0.059" fill="#afaea5" d="M 17.5,196.5 C 15.8235,195.817 15.1568,194.483 15.5,192.5C 16.1174,192.389 16.6174,192.056 17,191.5C 17.4935,193.134 17.6602,194.801 17.5,196.5 Z"/></g>
<g><path style="opacity:1" fill="#0b1316" d="M 122.5,192.5 C 120.267,193.809 118.933,195.809 118.5,198.5C 118.167,198.5 117.833,198.5 117.5,198.5C 110.174,197.76 102.841,197.093 95.5,196.5C 96.2297,194.955 97.563,194.122 99.5,194C 107.175,193.541 114.842,193.041 122.5,192.5 Z"/></g>
<g><path style="opacity:0.059" fill="#b5b5aa" d="M 335.5,193.5 C 335.946,196.01 335.28,198.01 333.5,199.5C 333.025,196.918 333.692,194.918 335.5,193.5 Z"/></g>
<g><path style="opacity:1" fill="#3ca2a3" d="M 237.5,215.5 C 240.977,216.323 244.644,216.823 248.5,217C 247.234,217.309 246.067,217.809 245,218.5C 243.096,217.898 241.263,218.398 239.5,220C 233.257,220.985 227.091,222.152 221,223.5C 220.667,223.167 220.333,222.833 220,222.5C 215.712,223.571 211.545,224.904 207.5,226.5C 206.12,225.024 204.453,224.024 202.5,223.5C 196.742,225.57 191.742,224.57 187.5,220.5C 184.054,214.358 183.72,208.025 186.5,201.5C 190.751,197.336 195.751,196.336 201.5,198.5C 201.662,200.527 201.495,202.527 201,204.5C 196.822,209.354 195.322,214.854 196.5,221C 199.099,221.769 201.599,221.602 204,220.5C 202.988,211.228 205.155,202.894 210.5,195.5C 215.511,193.927 220.177,194.594 224.5,197.5C 225.376,201.585 226.542,205.585 228,209.5C 230.5,210.667 232.333,212.5 233.5,215C 234.793,215.49 236.127,215.657 237.5,215.5 Z"/></g>
<g><path style="opacity:1" fill="#44abd7" d="M 230.5,190.5 C 234.5,190.5 238.5,190.5 242.5,190.5C 251.833,190.5 261.167,190.5 270.5,190.5C 267.759,191.083 265.092,192.083 262.5,193.5C 259.371,199.983 256.537,206.649 254,213.5C 253.005,214.066 252.172,214.733 251.5,215.5C 246.833,215.5 242.167,215.5 237.5,215.5C 236.127,215.657 234.793,215.49 233.5,215C 232.333,212.5 230.5,210.667 228,209.5C 226.542,205.585 225.376,201.585 224.5,197.5C 220.177,194.594 215.511,193.927 210.5,195.5C 205.155,202.894 202.988,211.228 204,220.5C 201.599,221.602 199.099,221.769 196.5,221C 195.322,214.854 196.822,209.354 201,204.5C 201.495,202.527 201.662,200.527 201.5,198.5C 195.751,196.336 190.751,197.336 186.5,201.5C 183.72,208.025 184.054,214.358 187.5,220.5C 186.952,223.084 185.285,224.084 182.5,223.5C 183.01,220.612 182.344,218.279 180.5,216.5C 178.884,210.845 179.217,205.345 181.5,200C 180.833,199.333 180.167,198.667 179.5,198C 168.525,195.409 157.858,196.242 147.5,200.5C 143.512,203.886 142.512,208.053 144.5,213C 150.137,217.701 149.304,219.534 142,218.5C 136.996,215.161 135.329,210.495 137,204.5C 139.477,203.015 141.644,201.181 143.5,199C 142.472,197.029 140.805,195.863 138.5,195.5C 138.5,195.167 138.5,194.833 138.5,194.5C 145.202,194.664 151.869,194.331 158.5,193.5C 161.167,193.5 163.833,193.5 166.5,193.5C 187.175,194.895 207.841,194.395 228.5,192C 229.416,191.722 230.082,191.222 230.5,190.5 Z"/></g>
<g><path style="opacity:1" fill="#3ca2a3" d="M 246.5,193.5 C 253.081,195.071 255.415,199.071 253.5,205.5C 248.064,210.721 241.731,211.887 234.5,209C 230.751,205.708 229.918,201.875 232,197.5C 237.155,197.014 241.989,195.68 246.5,193.5 Z"/></g>
<g><path style="opacity:1" fill="#3ca2a3" d="M 138.5,195.5 C 140.805,195.863 142.472,197.029 143.5,199C 141.644,201.181 139.477,203.015 137,204.5C 135.329,210.495 136.996,215.161 142,218.5C 149.304,219.534 150.137,217.701 144.5,213C 142.512,208.053 143.512,203.886 147.5,200.5C 157.858,196.242 168.525,195.409 179.5,198C 180.167,198.667 180.833,199.333 181.5,200C 179.217,205.345 178.884,210.845 180.5,216.5C 181.008,219.389 181.675,222.222 182.5,225C 180.884,226.077 179.051,226.577 177,226.5C 171.105,225.117 165.105,224.117 159,223.5C 154.026,223.432 149.026,223.432 144,223.5C 132.891,222.245 122.057,219.912 111.5,216.5C 111.5,214.833 111.5,213.167 111.5,211.5C 112.725,210.063 113.725,208.396 114.5,206.5C 117.863,203.467 121.197,200.467 124.5,197.5C 125.708,196.766 127.041,196.433 128.5,196.5C 132.042,196.813 135.375,196.479 138.5,195.5 Z"/></g>
<g><path style="opacity:0.059" fill="#babbaf" d="M 21.5,196.5 C 22.9063,196.973 23.573,197.973 23.5,199.5C 21.9519,199.179 21.2852,198.179 21.5,196.5 Z"/></g>
<g><path style="opacity:0.996" fill="#76642e" d="M 324.5,192.5 C 325.634,195.097 324.968,197.097 322.5,198.5C 322.875,196.302 323.542,194.302 324.5,192.5 Z"/></g>
<g><path style="opacity:0.588" fill="#b0aca7" d="M 24.5,200.5 C 26.4241,200.711 26.7574,201.377 25.5,202.5C 24.6618,202.842 24.3284,203.508 24.5,204.5C 22.4482,203.947 22.1148,202.947 23.5,201.5C 24.1667,201.5 24.5,201.167 24.5,200.5 Z"/></g>
<g><path style="opacity:1" fill="#3ea9d6" d="M 124.5,197.5 C 121.197,200.467 117.863,203.467 114.5,206.5C 113.725,208.396 112.725,210.063 111.5,211.5C 109.208,212.686 106.874,212.686 104.5,211.5C 105.81,209.852 107.143,208.186 108.5,206.5C 112.788,205.208 115.788,202.542 117.5,198.5C 117.833,198.5 118.167,198.5 118.5,198.5C 120.435,197.85 122.435,197.517 124.5,197.5 Z"/></g>
<g><path style="opacity:0.757" fill="#93908e" d="M 25.5,203.5 C 26.6491,203.791 27.3158,204.624 27.5,206C 27.472,207.07 27.1386,207.903 26.5,208.5C 25.8333,208.5 25.5,208.833 25.5,209.5C 23.5759,209.289 23.2426,208.623 24.5,207.5C 25.4345,206.432 25.7678,205.099 25.5,203.5 Z"/></g>
<g><path style="opacity:1" fill="#b6b8b2" d="M 20.5,212.5 C 22.4241,212.711 22.7574,213.377 21.5,214.5C 20.6618,214.158 20.3284,213.492 20.5,212.5 Z"/></g>
<g><path style="opacity:0.176" fill="#ada4a2" d="M 26.5,209.5 C 27.5862,209.62 28.2528,210.287 28.5,211.5C 28.4573,212.416 28.1239,213.083 27.5,213.5C 27.1667,213.5 26.8333,213.5 26.5,213.5C 26.5,212.167 26.5,210.833 26.5,209.5 Z"/></g>
<g><path style="opacity:1" fill="#d2d3d2" d="M 327.5,194.5 C 328.784,203.398 328.451,212.398 326.5,221.5C 325.887,212.502 326.22,203.502 327.5,194.5 Z"/></g>
<g><path style="opacity:0.996" fill="#b8b4ae" d="M 21.5,215.5 C 23.0481,215.821 23.7148,216.821 23.5,218.5C 21.6503,217.758 20.9836,216.758 21.5,215.5 Z"/></g>
<g><path style="opacity:0.757" fill="#8db9cd" d="M 35.5,242.5 C 34.8333,242.5 34.1667,242.5 33.5,242.5C 32.0341,233.84 30.7008,225.174 29.5,216.5C 30.1499,216.196 30.8165,215.863 31.5,215.5C 32.0405,224.667 33.3739,233.667 35.5,242.5 Z"/></g>
<g><path style="opacity:0.941" fill="#a29f9d" d="M 25.5,213.5 C 25.8333,213.5 26.1667,213.5 26.5,213.5C 26.8174,216.572 26.4841,219.572 25.5,222.5C 24.2949,221.423 23.6282,220.09 23.5,218.5C 24.1667,216.833 24.8333,215.167 25.5,213.5 Z"/></g>
<g><path style="opacity:0.739" fill="#928f8e" d="M 332.5,215.5 C 332.817,219.702 332.483,223.702 331.5,227.5C 330.357,224.024 330.19,220.358 331,216.5C 331.383,215.944 331.883,215.611 332.5,215.5 Z"/></g>
<g><path style="opacity:0.357" fill="#94938f" d="M 331.5,234.5 C 331.81,237.713 331.477,240.713 330.5,243.5C 329.842,242.207 329.508,240.707 329.5,239C 329.569,237.014 330.235,235.514 331.5,234.5 Z"/></g>
<g><path style="opacity:0.993" fill="#131415" d="M 33.5,242.5 C 34.1667,242.5 34.8333,242.5 35.5,242.5C 36.3748,244.568 37.5415,246.568 39,248.5C 48.2963,295.044 60.463,340.71 75.5,385.5C 77.5,386.167 79.5,386.833 81.5,387.5C 79.7494,389.49 78.7494,391.823 78.5,394.5C 80.0402,400.545 83.3735,405.378 88.5,409C 86.5273,409.495 84.5273,409.662 82.5,409.5C 85.8637,420.666 88.697,431.999 91,443.5C 93.0465,446.964 94.7132,450.63 96,454.5C 99.4072,457.527 102.907,460.36 106.5,463C 112.714,463.698 118.714,465.032 124.5,467C 157.076,470.219 189.742,471.386 222.5,470.5C 226.353,471.166 230.353,471.833 234.5,472.5C 234.376,473.107 234.043,473.44 233.5,473.5C 224.662,472.482 215.662,472.482 206.5,473.5C 201.684,473.58 197.017,474.414 192.5,476C 203.664,476.077 214.664,475.577 225.5,474.5C 227.167,474.5 228.833,474.5 230.5,474.5C 230.082,475.222 229.416,475.722 228.5,476C 230.473,476.495 232.473,476.662 234.5,476.5C 234.5,477.167 234.5,477.833 234.5,478.5C 227.005,478.976 219.671,479.642 212.5,480.5C 194.167,480.5 175.833,480.5 157.5,480.5C 148.949,479.598 140.282,478.598 131.5,477.5C 130.866,476.053 129.699,475.387 128,475.5C 126.93,475.528 126.097,475.861 125.5,476.5C 124.833,476.5 124.167,476.5 123.5,476.5C 123.209,475.351 122.376,474.684 121,474.5C 119.93,474.528 119.097,474.861 118.5,475.5C 117.5,475.5 116.5,475.5 115.5,475.5C 115.611,474.883 115.944,474.383 116.5,474C 114.866,473.506 113.199,473.34 111.5,473.5C 110.5,473.5 109.5,473.5 108.5,473.5C 108.5,472.833 108.167,472.5 107.5,472.5C 107.389,471.883 107.056,471.383 106.5,471C 102.175,469.319 97.8414,468.819 93.5,469.5C 93.5,468.167 92.8333,467.5 91.5,467.5C 89.6253,469.078 88.2919,468.745 87.5,466.5C 86.0971,464.032 84.0971,463.366 81.5,464.5C 80.2092,463.465 78.8758,462.465 77.5,461.5C 77.5,460.167 76.8333,459.5 75.5,459.5C 75.5,459.167 75.5,458.833 75.5,458.5C 76.1239,458.083 76.4573,457.416 76.5,456.5C 76.2528,455.287 75.5862,454.62 74.5,454.5C 74.5,454.167 74.5,453.833 74.5,453.5C 75.1667,452.167 75.8333,450.833 76.5,449.5C 77.6258,452.4 79.2924,455.067 81.5,457.5C 82.6599,453.541 82.8265,449.541 82,445.5C 79.2166,435.53 76.05,425.696 72.5,416C 71.4161,410.834 70.4161,405.668 69.5,400.5C 68.209,400.263 67.209,400.596 66.5,401.5C 65.7173,405.693 65.0506,410.027 64.5,414.5C 64.1667,414.5 63.8333,414.5 63.5,414.5C 63.5,413.833 63.5,413.167 63.5,412.5C 65.129,410.804 64.7957,409.804 62.5,409.5C 62.5,408.833 62.5,408.167 62.5,407.5C 63.1239,407.083 63.4573,406.416 63.5,405.5C 63.2528,404.287 62.5862,403.62 61.5,403.5C 61.5,402.833 61.5,402.167 61.5,401.5C 62.1386,400.903 62.472,400.07 62.5,399C 62.3158,397.624 61.6491,396.791 60.5,396.5C 59.6928,392.008 58.3594,387.675 56.5,383.5C 57.5862,383.38 58.2528,382.713 58.5,381.5C 58.2528,380.287 57.5862,379.62 56.5,379.5C 56.5,378.833 56.5,378.167 56.5,377.5C 57.1239,377.083 57.4573,376.416 57.5,375.5C 57.2528,374.287 56.5862,373.62 55.5,373.5C 55.5,372.833 55.5,372.167 55.5,371.5C 56.1239,371.083 56.4573,370.416 56.5,369.5C 56.2528,368.287 55.5862,367.62 54.5,367.5C 53.8505,365.565 53.5172,363.565 53.5,361.5C 53.7148,359.821 53.0481,358.821 51.5,358.5C 51.5,358.167 51.5,357.833 51.5,357.5C 52.1386,356.903 52.472,356.07 52.5,355C 52.3158,353.624 51.6491,352.791 50.5,352.5C 50.5,352.167 50.5,351.833 50.5,351.5C 51.8852,350.053 51.5518,349.053 49.5,348.5C 49.5,347.5 49.5,346.5 49.5,345.5C 50.7574,344.377 50.4241,343.711 48.5,343.5C 48.5759,341.696 48.2425,339.696 47.5,337.5C 47.6621,335.473 47.4955,333.473 47,331.5C 46.6174,332.056 46.1174,332.389 45.5,332.5C 45.5,331.833 45.5,331.167 45.5,330.5C 46.7574,329.377 46.4241,328.711 44.5,328.5C 43.7347,325.904 43.4013,323.237 43.5,320.5C 45.129,318.804 44.7957,317.804 42.5,317.5C 41.7347,314.904 41.4013,312.237 41.5,309.5C 41.7148,307.821 41.0481,306.821 39.5,306.5C 39.5,305.833 39.5,305.167 39.5,304.5C 41.0234,302.414 40.69,300.748 38.5,299.5C 38.5,298.833 38.5,298.167 38.5,297.5C 39.8852,296.053 39.5518,295.053 37.5,294.5C 37.5,293.833 37.5,293.167 37.5,292.5C 38.1386,291.903 38.472,291.07 38.5,290C 38.3158,288.624 37.6491,287.791 36.5,287.5C 35.701,284.57 35.3677,281.57 35.5,278.5C 35.3505,277.448 35.5172,276.448 36,275.5C 37,276.833 38,276.833 39,275.5C 39.6667,274.167 39.6667,272.833 39,271.5C 38.2825,270.549 37.4491,270.383 36.5,271C 36.0257,272.729 35.0257,273.895 33.5,274.5C 33.5,272.833 33.5,271.167 33.5,269.5C 34.1239,269.083 34.4573,268.416 34.5,267.5C 34.2528,266.287 33.5862,265.62 32.5,265.5C 32.5,264.5 32.5,263.5 32.5,262.5C 33.804,256.933 33.804,251.266 32.5,245.5C 32.5569,244.391 32.8902,243.391 33.5,242.5 Z"/></g>
<g><path style="opacity:0.243" fill="#8b8c8b" d="M 32.5,245.5 C 33.804,251.266 33.804,256.933 32.5,262.5C 31.7326,261.828 31.0659,260.995 30.5,260C 30.5,256 30.5,252 30.5,248C 31.0659,247.005 31.7326,246.172 32.5,245.5 Z"/></g>
<g><path style="opacity:0.122" fill="#535353" d="M 330.5,251.5 C 330.5,254.167 330.5,256.833 330.5,259.5C 329.833,259.833 329.167,260.167 328.5,260.5C 328.335,257.15 328.502,253.817 329,250.5C 329.383,251.056 329.883,251.389 330.5,251.5 Z"/></g>
<g><path style="opacity:0.996" fill="#9a9a95" d="M 32.5,265.5 C 33.5862,265.62 34.2528,266.287 34.5,267.5C 34.4573,268.416 34.1239,269.083 33.5,269.5C 32.5655,268.432 32.2322,267.099 32.5,265.5 Z"/></g>
<g><path style="opacity:0.486" fill="#bbbab2" d="M 330.5,259.5 C 330.81,262.713 330.477,265.713 329.5,268.5C 328.527,266.052 328.194,263.385 328.5,260.5C 329.167,260.167 329.833,259.833 330.5,259.5 Z"/></g>
<g><path style="opacity:1" fill="#c9c9c8" d="M 35.5,278.5 C 33.2381,277.655 32.5714,276.322 33.5,274.5C 35.0257,273.895 36.0257,272.729 36.5,271C 37.4491,270.383 38.2825,270.549 39,271.5C 39.6667,272.833 39.6667,274.167 39,275.5C 38,276.833 37,276.833 36,275.5C 35.5172,276.448 35.3505,277.448 35.5,278.5 Z"/></g>
<g><path style="opacity:0.059" fill="#b3b2a8" d="M 329.5,278.5 C 330.097,283.294 329.43,287.627 327.5,291.5C 326.903,286.706 327.57,282.373 329.5,278.5 Z"/></g>
<g><path style="opacity:1" fill="#0c0f10" d="M 219.5,288.5 C 227.772,288.08 235.939,288.746 244,290.5C 267.081,300.374 274.748,317.374 267,341.5C 254.404,360.503 237.07,366.17 215,358.5C 205.977,353.814 198.477,347.314 192.5,339C 188.383,325.809 190.217,313.642 198,302.5C 200.833,301 203,298.833 204.5,296C 209.782,293.76 214.782,291.26 219.5,288.5 Z"/></g>
<g><path style="opacity:0.545" fill="#9a9a99" d="M 36.5,287.5 C 37.6491,287.791 38.3158,288.624 38.5,290C 38.472,291.07 38.1386,291.903 37.5,292.5C 36.7611,292.631 36.0944,292.464 35.5,292C 36.3802,290.644 36.7135,289.144 36.5,287.5 Z"/></g>
<g><path style="opacity:1" fill="#0f1314" d="M 104.5,308.5 C 102.466,313.781 101.133,319.281 100.5,325C 101.678,340.925 109.512,352.092 124,358.5C 132.991,361.123 141.991,361.123 151,358.5C 156.154,355.886 160.821,352.553 165,348.5C 166.454,345.929 167.62,343.262 168.5,340.5C 171.904,334.205 172.404,327.539 170,320.5C 169.617,319.944 169.117,319.611 168.5,319.5C 166.233,310.73 160.9,304.563 152.5,301C 149.846,300.059 147.179,299.226 144.5,298.5C 142.193,296.953 139.527,296.287 136.5,296.5C 133.473,296.287 130.807,296.953 128.5,298.5C 124.975,299.21 121.642,300.21 118.5,301.5C 115.819,301.462 113.319,302.129 111,303.5C 110.235,303.43 109.735,303.097 109.5,302.5C 116.313,295.318 124.813,291.985 135,292.5C 155.561,293.264 169.228,303.264 176,322.5C 176.705,337.919 170.872,350.086 158.5,359C 136.45,370.053 117.616,366.22 102,347.5C 96.8043,338.218 95.1377,328.218 97,317.5C 98.665,313.68 101.165,310.68 104.5,308.5 Z"/></g>
<g><path style="opacity:1" fill="#f8f8f8" d="M 198.5,336.5 C 198.131,334.007 198.797,333.34 200.5,334.5C 201.316,336.144 202.65,337.31 204.5,338C 209.861,338.609 215.195,338.442 220.5,337.5C 219.486,334.308 217.486,331.808 214.5,330C 218.152,329.501 221.818,329.335 225.5,329.5C 225.66,327.801 225.494,326.134 225,324.5C 222.849,321.548 220.682,318.548 218.5,315.5C 209.668,311.646 203.668,314.313 200.5,323.5C 199.883,323.611 199.383,323.944 199,324.5C 198.817,327.365 198.317,330.031 197.5,332.5C 193.681,313.481 201.014,300.981 219.5,295C 241.865,289.891 257.198,297.725 265.5,318.5C 267.908,335.17 261.574,347.003 246.5,354C 236.167,356 225.833,356 215.5,354C 211.695,351.542 207.862,349.042 204,346.5C 202.41,342.984 200.577,339.65 198.5,336.5 Z"/></g>
<g><path style="opacity:0.357" fill="#9e9b94" d="M 37.5,294.5 C 39.5518,295.053 39.8852,296.053 38.5,297.5C 37.596,296.791 37.2627,295.791 37.5,294.5 Z"/></g>
<g><path style="opacity:1" fill="#6a6a69" d="M 144.5,298.5 C 139.167,297.167 133.833,297.167 128.5,298.5C 130.807,296.953 133.473,296.287 136.5,296.5C 139.527,296.287 142.193,296.953 144.5,298.5 Z"/></g>
<g><path style="opacity:1" fill="#fafafa" d="M 144.5,298.5 C 147.179,299.226 149.846,300.059 152.5,301C 160.9,304.563 166.233,310.73 168.5,319.5C 169.833,326.5 169.833,333.5 168.5,340.5C 167.62,343.262 166.454,345.929 165,348.5C 160.821,352.553 156.154,355.886 151,358.5C 141.991,361.123 132.991,361.123 124,358.5C 109.512,352.092 101.678,340.925 100.5,325C 101.133,319.281 102.466,313.781 104.5,308.5C 105.833,307.833 106.833,306.833 107.5,305.5C 111.532,304.918 115.199,303.584 118.5,301.5C 121.642,300.21 124.975,299.21 128.5,298.5C 133.833,297.167 139.167,297.167 144.5,298.5 Z"/></g>
<g><path style="opacity:0.275" fill="#847e7c" d="M 38.5,299.5 C 40.69,300.748 41.0234,302.414 39.5,304.5C 38.7656,303.122 38.0989,301.622 37.5,300C 37.7284,299.601 38.0618,299.435 38.5,299.5 Z"/></g>
<g><path style="opacity:1" fill="#d1d1d0" d="M 42.5,296.5 C 43.9311,296.881 44.7645,297.881 45,299.5C 46.7196,306.086 47.3863,312.753 47,319.5C 45.3075,314.58 43.9741,309.58 43,304.5C 42.5026,301.854 42.3359,299.187 42.5,296.5 Z"/></g>
<g><path style="opacity:1" fill="#a2a5a6" d="M 118.5,301.5 C 115.199,303.584 111.532,304.918 107.5,305.5C 107.932,304.29 108.599,303.29 109.5,302.5C 109.735,303.097 110.235,303.43 111,303.5C 113.319,302.129 115.819,301.462 118.5,301.5 Z"/></g>
<g><path style="opacity:1" fill="#afaea4" d="M 39.5,306.5 C 41.0481,306.821 41.7148,307.821 41.5,309.5C 40.0937,309.027 39.427,308.027 39.5,306.5 Z"/></g>
<g><path style="opacity:1" fill="#0b0b0b" d="M 200.5,334.5 C 199.167,330.833 199.167,327.167 200.5,323.5C 203.668,314.313 209.668,311.646 218.5,315.5C 220.682,318.548 222.849,321.548 225,324.5C 225.494,326.134 225.66,327.801 225.5,329.5C 221.818,329.335 218.152,329.501 214.5,330C 217.486,331.808 219.486,334.308 220.5,337.5C 215.195,338.442 209.861,338.609 204.5,338C 202.65,337.31 201.316,336.144 200.5,334.5 Z"/></g>
<g><path style="opacity:0.059" fill="#aeada6" d="M 42.5,317.5 C 44.7957,317.804 45.129,318.804 43.5,320.5C 42.596,319.791 42.2627,318.791 42.5,317.5 Z"/></g>
<g><path style="opacity:1" fill="#0f0f0f" d="M 104.5,335.5 C 103.167,333.5 103.167,331.5 104.5,329.5C 105.672,322.531 109.839,318.865 117,318.5C 119.253,318.631 121.419,319.131 123.5,320C 132.327,329.018 130.993,336.018 119.5,341C 114.346,342.109 109.679,341.109 105.5,338C 104.748,337.329 104.414,336.496 104.5,335.5 Z"/></g>
<g><path style="opacity:0.996" fill="#8f8e8d" d="M 326.5,317.5 C 326.784,319.415 326.451,321.081 325.5,322.5C 324.861,321.903 324.528,321.07 324.5,320C 324.684,318.624 325.351,317.791 326.5,317.5 Z"/></g>
<g><path style="opacity:1" fill="#b3b3b2" d="M 168.5,319.5 C 169.117,319.611 169.617,319.944 170,320.5C 172.404,327.539 171.904,334.205 168.5,340.5C 169.833,333.5 169.833,326.5 168.5,319.5 Z"/></g>
<g><path style="opacity:0.988" fill="#b5b7b2" d="M 44.5,328.5 C 46.4241,328.711 46.7574,329.377 45.5,330.5C 44.6618,330.158 44.3284,329.492 44.5,328.5 Z"/></g>
<g><path style="opacity:0.996" fill="#656565" d="M 104.5,329.5 C 103.167,331.5 103.167,333.5 104.5,335.5C 103.307,335.03 102.64,334.03 102.5,332.5C 102.64,330.97 103.307,329.97 104.5,329.5 Z"/></g>
<g><path style="opacity:0.059" fill="#b0aca5" d="M 47.5,337.5 C 46.0687,336.22 45.4021,334.553 45.5,332.5C 46.1174,332.389 46.6174,332.056 47,331.5C 47.4955,333.473 47.6621,335.473 47.5,337.5 Z"/></g>
<g><path style="opacity:1" fill="#ededed" d="M 118.5,331.5 C 120.527,331.338 122.527,331.505 124.5,332C 125.869,334.239 125.369,336.073 123,337.5C 120.126,336.468 118.626,334.468 118.5,331.5 Z"/></g>
<g><path style="opacity:0.996" fill="#a0a0a0" d="M 200.5,323.5 C 199.167,327.167 199.167,330.833 200.5,334.5C 198.797,333.34 198.131,334.007 198.5,336.5C 197.566,335.432 197.232,334.099 197.5,332.5C 198.317,330.031 198.817,327.365 199,324.5C 199.383,323.944 199.883,323.611 200.5,323.5 Z"/></g>
<g><path style="opacity:0.243" fill="#9d9997" d="M 325.5,331.5 C 325.802,334.059 325.468,336.393 324.5,338.5C 323.848,337.551 323.514,336.385 323.5,335C 323.608,333.319 324.275,332.152 325.5,331.5 Z"/></g>
<g><path style="opacity:0.176" fill="#928680" d="M 48.5,343.5 C 50.4241,343.711 50.7574,344.377 49.5,345.5C 48.6618,345.158 48.3284,344.492 48.5,343.5 Z"/></g>
<g><path style="opacity:0.118" fill="#92918d" d="M 324.5,341.5 C 324.81,344.713 324.477,347.713 323.5,350.5C 322.842,349.207 322.508,347.707 322.5,346C 322.569,344.014 323.235,342.514 324.5,341.5 Z"/></g>
<g><path style="opacity:0.357" fill="#a7a49d" d="M 49.5,348.5 C 51.5518,349.053 51.8852,350.053 50.5,351.5C 49.596,350.791 49.2627,349.791 49.5,348.5 Z"/></g>
<g><path style="opacity:1" fill="#0c0e0f" d="M 177.5,349.5 C 195.962,349.629 209.295,357.962 217.5,374.5C 218.833,377.167 218.833,379.833 217.5,382.5C 212.012,384.487 207.512,387.82 204,392.5C 203.841,397.916 203.174,403.25 202,408.5C 200.431,409.122 198.764,409.456 197,409.5C 192.821,408.914 188.654,408.247 184.5,407.5C 181.19,407.659 178.19,408.659 175.5,410.5C 171.934,409.761 169.434,407.761 168,404.5C 167.402,398.037 166.235,391.704 164.5,385.5C 161.567,382.986 158.234,381.32 154.5,380.5C 154.234,376.395 154.734,372.395 156,368.5C 158.511,366.321 160.678,363.821 162.5,361C 165.403,360.431 167.403,358.765 168.5,356C 171.991,354.317 174.991,352.15 177.5,349.5 Z"/></g>
<g><path style="opacity:1" fill="#184a62" d="M 314.5,341.5 C 314.877,346.453 314.211,351.119 312.5,355.5C 312.362,350.586 313.028,345.919 314.5,341.5 Z"/></g>
<g><path style="opacity:1" fill="#e0e0e0" d="M 52.5,335.5 C 54.159,336.834 55.4924,338.501 56.5,340.5C 57.3051,348.711 59.3051,356.545 62.5,364C 65.2818,374.048 66.2818,384.214 65.5,394.5C 63.7467,391.995 62.2467,389.329 61,386.5C 58.9462,369.274 56.1129,352.274 52.5,335.5 Z"/></g>
<g><path style="opacity:0.118" fill="#969690" d="M 50.5,352.5 C 51.6491,352.791 52.3158,353.624 52.5,355C 52.472,356.07 52.1386,356.903 51.5,357.5C 50.5489,356.081 50.2155,354.415 50.5,352.5 Z"/></g>
<g><path style="opacity:0.059" fill="#b4b1a8" d="M 323.5,358.5 C 323.664,361.187 323.497,363.854 323,366.5C 322.617,367.056 322.117,367.389 321.5,367.5C 321.334,363.486 321.501,359.486 322,355.5C 322.232,356.737 322.732,357.737 323.5,358.5 Z"/></g>
<g><path style="opacity:0.059" fill="#bcbcaf" d="M 51.5,358.5 C 53.0481,358.821 53.7148,359.821 53.5,361.5C 52.0937,361.027 51.427,360.027 51.5,358.5 Z"/></g>
<g><path style="opacity:1" fill="#b99265" d="M 164.5,365.5 C 168.703,366.873 173.036,367.54 177.5,367.5C 186.78,365.915 196.114,365.415 205.5,366C 210.982,368.81 213.482,373.31 213,379.5C 210.065,381.216 206.899,382.216 203.5,382.5C 195.618,380.524 187.618,379.191 179.5,378.5C 174.312,378.621 169.812,380.288 166,383.5C 154.176,377.989 153.676,371.989 164.5,365.5 Z"/></g>
<g><path style="opacity:0.906" fill="#6e6d6d" d="M 54.5,367.5 C 55.5862,367.62 56.2528,368.287 56.5,369.5C 56.4573,370.416 56.1239,371.083 55.5,371.5C 54.5655,370.432 54.2322,369.099 54.5,367.5 Z"/></g>
<g><path style="opacity:0.882" fill="#a3a29d" d="M 55.5,373.5 C 56.5862,373.62 57.2528,374.287 57.5,375.5C 57.4573,376.416 57.1239,377.083 56.5,377.5C 55.5655,376.432 55.2322,375.099 55.5,373.5 Z"/></g>
<g><path style="opacity:0.11" fill="#a8aca4" d="M 56.5,379.5 C 57.5862,379.62 58.2528,380.287 58.5,381.5C 58.2528,382.713 57.5862,383.38 56.5,383.5C 55.5946,382.298 55.5946,380.964 56.5,379.5 Z"/></g>
<g><path style="opacity:0.792" fill="#929290" d="M 320.5,382.5 C 320.784,384.415 320.451,386.081 319.5,387.5C 318.07,385.545 318.403,383.879 320.5,382.5 Z"/></g>
<g><path style="opacity:1" fill="#f3f3f3" d="M 177.5,383.5 C 180.852,384.253 183.019,386.253 184,389.5C 186.794,400.529 182.627,405.529 171.5,404.5C 171.726,398.419 172.559,392.419 174,386.5C 175.518,385.837 176.685,384.837 177.5,383.5 Z"/></g>
<g><path style="opacity:1" fill="#f2f3f2" d="M 190.5,384.5 C 196.322,384.136 200.155,386.803 202,392.5C 203.599,399.577 201.099,404.243 194.5,406.5C 191.493,405.657 189.66,403.657 189,400.5C 188.071,394.98 188.571,389.647 190.5,384.5 Z"/></g>
<g><path style="opacity:1" fill="#cacac9" d="M 69.5,380.5 C 72.2175,383.637 73.0508,387.304 72,391.5C 70.3783,388.013 69.545,384.346 69.5,380.5 Z"/></g>
<g><path style="opacity:0.996" fill="#8f8f8c" d="M 319.5,389.5 C 319.5,391.833 319.5,394.167 319.5,396.5C 318.252,395.666 317.585,394.333 317.5,392.5C 317.667,391.167 317.833,389.833 318,388.5C 318.383,389.056 318.883,389.389 319.5,389.5 Z"/></g>
<g><path style="opacity:0.722" fill="#878584" d="M 60.5,396.5 C 61.6491,396.791 62.3158,397.624 62.5,399C 62.472,400.07 62.1386,400.903 61.5,401.5C 60.7109,401.217 60.0442,400.717 59.5,400C 60.3366,398.989 60.67,397.822 60.5,396.5 Z"/></g>
<g><path style="opacity:1" fill="#e6e6e6" d="M 76.5,449.5 C 72.2637,433.65 68.9304,417.65 66.5,401.5C 67.209,400.596 68.209,400.263 69.5,400.5C 70.4161,405.668 71.4161,410.834 72.5,416C 76.05,425.696 79.2166,435.53 82,445.5C 82.8265,449.541 82.6599,453.541 81.5,457.5C 79.2924,455.067 77.6258,452.4 76.5,449.5 Z"/></g>
<g><path style="opacity:0.996" fill="#bcbbb5" d="M 318.5,400.5 C 318.784,402.415 318.451,404.081 317.5,405.5C 316.861,404.903 316.528,404.07 316.5,403C 316.684,401.624 317.351,400.791 318.5,400.5 Z"/></g>
<g><path style="opacity:0.882" fill="#b0afa8" d="M 61.5,403.5 C 62.5862,403.62 63.2528,404.287 63.5,405.5C 63.4573,406.416 63.1239,407.083 62.5,407.5C 61.5655,406.432 61.2322,405.099 61.5,403.5 Z"/></g>
<g><path style="opacity:0.996" fill="#777777" d="M 77.5,407.5 C 76.5489,408.919 76.2155,410.585 76.5,412.5C 75.3659,410.034 75.1993,407.367 76,404.5C 76.5133,405.527 77.0133,406.527 77.5,407.5 Z"/></g>
<g><path style="opacity:0.059" fill="#a1a19a" d="M 317.5,408.5 C 317.715,410.179 317.048,411.179 315.5,411.5C 315.343,410.127 315.51,408.793 316,407.5C 316.383,408.056 316.883,408.389 317.5,408.5 Z"/></g>
<g><path style="opacity:0.275" fill="#9a918f" d="M 62.5,409.5 C 64.7957,409.804 65.129,410.804 63.5,412.5C 62.596,411.791 62.2627,410.791 62.5,409.5 Z"/></g>
<g><path style="opacity:1" fill="#e7e7e7" d="M 77.5,407.5 C 77.8118,410.273 78.9784,412.607 81,414.5C 85.404,427.698 89.2373,441.032 92.5,454.5C 92.1667,455.5 91.8333,456.5 91.5,457.5C 83.6259,443.47 78.6259,428.47 76.5,412.5C 76.2155,410.585 76.5489,408.919 77.5,407.5 Z"/></g>
<g><path style="opacity:0.059" fill="#a7a79f" d="M 63.5,414.5 C 63.8333,414.5 64.1667,414.5 64.5,414.5C 65.404,415.209 65.7373,416.209 65.5,417.5C 63.9519,417.179 63.2852,416.179 63.5,414.5 Z"/></g>
<g><path style="opacity:1" fill="#121e24" d="M 98.5,414.5 C 111.674,418.368 125.007,421.534 138.5,424C 166.453,425.994 166.453,426.66 138.5,426C 124.756,422.621 110.756,420.454 96.5,419.5C 96.3653,417.446 97.032,415.779 98.5,414.5 Z"/></g>
<g><path style="opacity:1" fill="#2d2d2c" d="M 66.5,401.5 C 68.9304,417.65 72.2637,433.65 76.5,449.5C 75.8333,450.833 75.1667,452.167 74.5,453.5C 73.8688,451.552 72.8688,449.719 71.5,448C 71.7845,446.044 71.7845,443.877 71.5,441.5C 71.6567,440.127 71.49,438.793 71,437.5C 70.6174,438.056 70.1174,438.389 69.5,438.5C 68.7063,435.198 68.0396,431.865 67.5,428.5C 69.1751,426.544 68.8418,425.211 66.5,424.5C 65.6314,422.283 65.298,419.95 65.5,417.5C 65.7373,416.209 65.404,415.209 64.5,414.5C 65.0506,410.027 65.7173,405.693 66.5,401.5 Z"/></g>
<g><path style="opacity:0.757" fill="#555554" d="M 314.5,420.5 C 314.825,427.687 314.491,434.687 313.5,441.5C 312.374,434.914 312.208,428.247 313,421.5C 313.383,420.944 313.883,420.611 314.5,420.5 Z"/></g>
<g><path style="opacity:0.533" fill="#a5a49e" d="M 66.5,424.5 C 68.8418,425.211 69.1751,426.544 67.5,428.5C 66.5655,427.432 66.2322,426.099 66.5,424.5 Z"/></g>
<g><path style="opacity:0.059" fill="#adada0" d="M 71.5,441.5 C 70.0937,441.027 69.427,440.027 69.5,438.5C 70.1174,438.389 70.6174,438.056 71,437.5C 71.49,438.793 71.6567,440.127 71.5,441.5 Z"/></g>
<g><path style="opacity:0.243" fill="#83807f" d="M 313.5,441.5 C 313.829,444.228 313.163,446.562 311.5,448.5C 310.774,447.235 310.774,445.735 311.5,444C 311.684,442.624 312.351,441.791 313.5,441.5 Z"/></g>
<g><path style="opacity:0.176" fill="#757371" d="M 74.5,454.5 C 75.5862,454.62 76.2528,455.287 76.5,456.5C 76.4573,457.416 76.1239,458.083 75.5,458.5C 74.5655,457.432 74.2322,456.099 74.5,454.5 Z"/></g>
<g><path style="opacity:0.882" fill="#a9a3a0" d="M 75.5,459.5 C 76.8333,459.5 77.5,460.167 77.5,461.5C 76.7611,461.631 76.0944,461.464 75.5,461C 74.2617,460.31 74.2617,459.81 75.5,459.5 Z"/></g>
<g><path style="opacity:0.012" fill="#817e7b" d="M 77.5,461.5 C 78.8758,462.465 80.2092,463.465 81.5,464.5C 80.1667,464.5 78.8333,464.5 77.5,464.5C 77.5,463.5 77.5,462.5 77.5,461.5 Z"/></g>
<g><path style="opacity:0.243" fill="#a29c9c" d="M 301.5,463.5 C 299.967,465.245 297.967,466.245 295.5,466.5C 296.953,463.769 298.953,462.769 301.5,463.5 Z"/></g>
<g><path style="opacity:0.243" fill="#8d8c8c" d="M 87.5,466.5 C 85.1016,466.741 83.1016,466.074 81.5,464.5C 84.0971,463.366 86.0971,464.032 87.5,466.5 Z"/></g>
<g><path style="opacity:0.941" fill="#a19f94" d="M 91.5,467.5 C 92.8333,467.5 93.5,468.167 93.5,469.5C 92.1667,469.5 91.5,468.833 91.5,467.5 Z"/></g>
<g><path style="opacity:0.31" fill="#9f9896" d="M 283.5,469.5 C 282.791,470.404 281.791,470.737 280.5,470.5C 281.053,468.448 282.053,468.115 283.5,469.5 Z"/></g>
<g><path style="opacity:0.243" fill="#72706e" d="M 107.5,472.5 C 105.856,472.286 104.356,472.62 103,473.5C 100.032,471.489 96.8657,470.156 93.5,469.5C 97.8414,468.819 102.175,469.319 106.5,471C 107.056,471.383 107.389,471.883 107.5,472.5 Z"/></g>
<g><path style="opacity:1" fill="#afafae" d="M 145.5,472.5 C 140.86,471.603 136.194,471.436 131.5,472C 132.737,472.232 133.737,472.732 134.5,473.5C 130.615,473.635 127.281,472.468 124.5,470C 125.833,469.833 127.167,469.667 128.5,469.5C 134.444,469.783 140.11,470.783 145.5,472.5 Z"/></g>
<g><path style="opacity:0.243" fill="#92918c" d="M 279.5,470.5 C 278.432,471.434 277.099,471.768 275.5,471.5C 275.62,470.414 276.287,469.747 277.5,469.5C 278.416,469.543 279.083,469.876 279.5,470.5 Z"/></g>
<g><path style="opacity:0.059" fill="#a2a29a" d="M 275.5,471.5 C 274.791,472.404 273.791,472.737 272.5,472.5C 272.804,470.204 273.804,469.871 275.5,471.5 Z"/></g>
<g><path style="opacity:1" fill="#e4e4e4" d="M 145.5,472.5 C 155.274,472.631 164.941,473.464 174.5,475C 161.105,475.843 147.772,475.343 134.5,473.5C 133.737,472.732 132.737,472.232 131.5,472C 136.194,471.436 140.86,471.603 145.5,472.5 Z"/></g>
<g><path style="opacity:0.024" fill="#000000" d="M 108.5,473.5 C 107.833,474.167 107.833,474.167 108.5,473.5 Z"/></g>
<g><path style="opacity:1" fill="#dddede" d="M 233.5,473.5 C 232.609,474.11 231.609,474.443 230.5,474.5C 228.833,474.5 227.167,474.5 225.5,474.5C 218.978,474.823 212.645,474.49 206.5,473.5C 215.662,472.482 224.662,472.482 233.5,473.5 Z"/></g>
<g><path style="opacity:0.059" fill="#b1b1a7" d="M 111.5,473.5 C 113.199,473.34 114.866,473.506 116.5,474C 115.944,474.383 115.611,474.883 115.5,475.5C 113.62,475.771 112.287,475.104 111.5,473.5 Z"/></g>
<g><path style="opacity:1" fill="#eaebea" d="M 179.5,474.5 C 180.978,474.238 182.311,474.571 183.5,475.5C 182.833,475.833 182.167,476.167 181.5,476.5C 180.287,476.253 179.62,475.586 179.5,474.5 Z"/></g>
<g><path style="opacity:0.996" fill="#a4a3a3" d="M 206.5,473.5 C 212.645,474.49 218.978,474.823 225.5,474.5C 214.664,475.577 203.664,476.077 192.5,476C 197.017,474.414 201.684,473.58 206.5,473.5 Z"/></g>
<g><path style="opacity:0.059" fill="#b6b7aa" d="M 265.5,473.5 C 264.486,474.674 263.153,475.34 261.5,475.5C 261.389,474.883 261.056,474.383 260.5,474C 262.134,473.506 263.801,473.34 265.5,473.5 Z"/></g>
<g><path style="opacity:0.122" fill="#757472" d="M 123.5,476.5 C 121.585,476.784 119.919,476.451 118.5,475.5C 119.097,474.861 119.93,474.528 121,474.5C 122.376,474.684 123.209,475.351 123.5,476.5 Z"/></g>
<g><path style="opacity:0.118" fill="#a3a39d" d="M 259.5,475.5 C 258.081,476.451 256.415,476.784 254.5,476.5C 254.791,475.351 255.624,474.684 257,474.5C 258.07,474.528 258.903,474.861 259.5,475.5 Z"/></g>
<g><path style="opacity:0.255" fill="#6c6a63" d="M 131.5,477.5 C 129.265,477.795 127.265,477.461 125.5,476.5C 126.097,475.861 126.93,475.528 128,475.5C 129.699,475.387 130.866,476.053 131.5,477.5 Z"/></g>
<g><path style="opacity:0.243" fill="#777776" d="M 250.5,477.5 C 248.331,478.082 245.998,478.082 243.5,477.5C 243.389,476.883 243.056,476.383 242.5,476C 243.833,475.833 245.167,475.667 246.5,475.5C 248.333,475.585 249.666,476.252 250.5,477.5 Z"/></g>
<g><path style="opacity:0.757" fill="#676766" d="M 234.5,476.5 C 236.621,476.325 238.621,476.659 240.5,477.5C 238.735,478.461 236.735,478.795 234.5,478.5C 234.5,477.833 234.5,477.167 234.5,476.5 Z"/></g>
</svg>
